<?xml version="1.0" encoding="UTF-8" standalone="no"?>
<!-- Created with Inkscape (http://www.inkscape.org/) -->

<svg
   xmlns:dc="http://purl.org/dc/elements/1.1/"
   xmlns:cc="http://creativecommons.org/ns#"
   xmlns:rdf="http://www.w3.org/1999/02/22-rdf-syntax-ns#"
   xmlns:svg="http://www.w3.org/2000/svg"
   xmlns="http://www.w3.org/2000/svg"
   xmlns:sodipodi="http://sodipodi.sourceforge.net/DTD/sodipodi-0.dtd"
   xmlns:inkscape="http://www.inkscape.org/namespaces/inkscape"
   x="0px"
   y="0px"
   viewBox="0 0 275 40"
   version="1.1">
  <g
     inkscape:label="Calque 1"
     inkscape:groupmode="layer"
     id="layer1">
    <rect
       style="fill:#E0E000;fill-opacity:1"
       id="yellow"
       width="250"
       height="25"
       x="10"
       y="0"
       ry="12.5" />
    <rect
       style="fill:#803300;fill-opacity:1;stroke:#000000;stroke-width:1;stroke-linecap:round;stroke-linejoin:round;stroke-miterlimit:4;stroke-dasharray:none;stroke-opacity:1"
       id="rect1"
       width="70"
       height="25"
       x="5"
       y="0"
       ry="12.5" />
    <rect
       style="fill:#803300;fill-opacity:1;stroke:#000000;stroke-width:1;stroke-linecap:round;stroke-linejoin:round;stroke-miterlimit:4;stroke-dasharray:none;stroke-opacity:1"
       id="rect2"
       width="70"
       height="25"
       x="70"
       y="0"
       ry="12.5" />
    <circle
       style="fill:#803300;fill-opacity:1"
       id="cover2"
       cx="62.5"
       cy="12.5"
       r="12" />
    <rect
       style="fill:#803300;fill-opacity:1;stroke:#000000;stroke-width:1;stroke-linecap:round;stroke-linejoin:round;stroke-miterlimit:4;stroke-dasharray:none;stroke-opacity:1"
       id="rect3"
       width="70"
       height="25"
       x="135"
       y="0"
       ry="12.5" />
    <circle
       style="fill:#803300;fill-opacity:1"
       id="cover3"
       cx="127.5"
       cy="12.5"
       r="12" />
    <rect
       style="fill:#803300;fill-opacity:1;stroke:#000000;stroke-width:1;stroke-linecap:round;stroke-linejoin:round;stroke-miterlimit:4;stroke-dasharray:none;stroke-opacity:1"
       id="rect4"
       width="70"
       height="25"
       x="200"
       y="0"
       ry="12.5" />
    <circle
       style="fill:#803300;fill-opacity:1"
       id="cover4"
       cx="192.5"
       cy="12.5"
       r="12" />
    <path
       style="fill:none;stroke:#000000;stroke-width:1;stroke-linecap:butt;stroke-linejoin:miter;stroke-miterlimit:4;stroke-dasharray:none;stroke-opacity:1"
       d="m 72.5,5 v 15"
       id="separ12" />
    <path
       style="fill:none;stroke:#000000;stroke-width:1;stroke-linecap:butt;stroke-linejoin:miter;stroke-miterlimit:4;stroke-dasharray:none;stroke-opacity:1"
       d="m 137.5,5 v 15"
       id="separ23" />
    <path
       style="fill:none;stroke:#000000;stroke-width:1;stroke-linecap:butt;stroke-linejoin:miter;stroke-miterlimit:4;stroke-dasharray:none;stroke-opacity:1"
       d="m 202.5,5 v 15"
       id="separ34" />
    <path
       style="fill:none;stroke:#000000;stroke-width:1;stroke-linecap:butt;stroke-linejoin:miter;stroke-miterlimit:4;stroke-dasharray:none;stroke-opacity:1"
       d="m 5,22 v 10"
       id="vert01" />
    <path
       style="fill:none;stroke:#000000;stroke-width:1;stroke-linecap:butt;stroke-linejoin:miter;stroke-miterlimit:4;stroke-dasharray:none;stroke-opacity:1"
       d="m 72.5,22 v 10"
       id="vert12" />
    <path
       style="fill:none;stroke:#000000;stroke-width:1;stroke-linecap:butt;stroke-linejoin:miter;stroke-miterlimit:4;stroke-dasharray:none;stroke-opacity:1"
       d="m 137.5,22 v 10"
       id="vert23" />
    <path
       style="fill:none;stroke:#000000;stroke-width:1;stroke-linecap:butt;stroke-linejoin:miter;stroke-miterlimit:4;stroke-dasharray:none;stroke-opacity:1"
       d="m 202.5,22 v 10"
       id="vert34" />
    <path
       style="fill:none;stroke:#000000;stroke-width:1;stroke-linecap:butt;stroke-linejoin:miter;stroke-miterlimit:4;stroke-dasharray:none;stroke-opacity:1"
       d="m 270,22 v 10"
       id="vert40" />
    <path
       style="fill:none;stroke:#000000;stroke-width:1;stroke-linecap:butt;stroke-linejoin:miter;stroke-miterlimit:4;stroke-dasharray:none;stroke-opacity:1"
       d="m 5,22 v 10"
       id="path19" />
    <path
       style="fill:none;stroke:#000000;stroke-width:1;stroke-linecap:butt;stroke-linejoin:miter;stroke-miterlimit:4;stroke-dasharray:none;stroke-opacity:1"
       d="M 5,27 H 270"
       id="horizon" />
    <g
       aria-label="Spacing"
       style="font-style:normal;font-variant:normal;font-weight:bold;font-stretch:normal;font-size:12.69999981px;line-height:1.25;font-family:Arial;-inkscape-font-specification:'Arial Bold';text-align:center;letter-spacing:0px;word-spacing:0px;text-anchor:middle;fill:#000000;fill-opacity:1;stroke:none;stroke-width:0.26458332"
       id="text1">
      <path
         d="m 80.866634,34.413959 1.785937,-0.173633 q 0.161231,0.89917 0.651123,1.32085 0.496094,0.421679 1.333252,0.421679 0.886768,0 1.333252,-0.37207 0.452686,-0.378272 0.452686,-0.880566 0,-0.322461 -0.192236,-0.545704 -0.186036,-0.229443 -0.657325,-0.396875 -0.322461,-0.111621 -1.469677,-0.396875 -1.475879,-0.365869 -2.071192,-0.899169 -0.837158,-0.750342 -0.837158,-1.829346 0,-0.694531 0.390674,-1.296045 0.396875,-0.607715 1.134814,-0.923975 0.744141,-0.316259 1.792139,-0.316259 1.711523,0 2.573486,0.750341 0.868164,0.750342 0.911573,2.002979 l -1.835547,0.08062 q -0.117823,-0.700732 -0.508496,-1.00459 -0.384473,-0.310058 -1.15962,-0.310058 -0.799951,0 -1.252636,0.328662 -0.291455,0.21084 -0.291455,0.564306 0,0.322461 0.272851,0.551905 0.347266,0.291455 1.686719,0.607715 1.339453,0.316259 1.978174,0.657324 0.644922,0.334863 1.00459,0.923974 0.365869,0.58291 0.365869,1.444873 0,0.781348 -0.434082,1.463477 -0.434082,0.682129 -1.227832,1.016992 -0.79375,0.328662 -1.978174,0.328662 -1.723926,0 -2.6479,-0.79375 -0.923975,-0.799951 -1.103809,-2.325439 z"
         style="stroke-width:0.26458332"
         id="path924" />
      <path
         d="m 89.752913,30.786273 h 1.624707 v 0.967383 q 0.31626,-0.496094 0.855762,-0.806152 0.539502,-0.310059 1.196826,-0.310059 1.147217,0 1.947168,0.89917 0.799951,0.89917 0.799951,2.505273 0,1.649512 -0.806152,2.567286 -0.806153,0.911572 -1.953369,0.911572 -0.545704,0 -0.992188,-0.217041 -0.440283,-0.217041 -0.930176,-0.744141 v 3.317627 h -1.742529 z m 1.723926,3.181201 q 0,1.11001 0.440283,1.643311 0.440283,0.5271 1.072803,0.5271 0.607715,0 1.010791,-0.483692 0.403076,-0.489892 0.403076,-1.599902 0,-1.035596 -0.415479,-1.537891 -0.415478,-0.502295 -1.029394,-0.502295 -0.638721,0 -1.0604,0.496094 -0.42168,0.489893 -0.42168,1.457275 z"
         style="stroke-width:0.26458332"
         id="path926" />
      <path
         d="m 98.868636,32.795453 -1.581299,-0.285254 q 0.26665,-0.95498 0.917774,-1.413867 0.651123,-0.458887 1.934769,-0.458887 1.16582,0 1.73632,0.279053 0.57051,0.272851 0.79996,0.700732 0.23564,0.42168 0.23564,1.556494 l -0.0186,2.033985 q 0,0.868164 0.0806,1.283642 0.0868,0.409278 0.31626,0.880567 h -1.72392 q -0.0682,-0.173633 -0.16744,-0.514698 -0.0434,-0.155029 -0.062,-0.204638 -0.44648,0.434082 -0.95498,0.651123 -0.508494,0.217041 -1.085203,0.217041 -1.016992,0 -1.606104,-0.551904 -0.58291,-0.551905 -0.58291,-1.395264 0,-0.558106 0.26665,-0.992188 0.266651,-0.440283 0.744141,-0.669726 0.483692,-0.235645 1.389063,-0.409277 1.221633,-0.229444 1.692923,-0.427881 v -0.173633 q 0,-0.502295 -0.24805,-0.713135 -0.24805,-0.217041 -0.93638,-0.217041 -0.465085,0 -0.725534,0.186035 -0.26045,0.179834 -0.42168,0.638721 z m 2.331644,1.413867 q -0.33487,0.111621 -1.0604,0.266651 -0.725541,0.155029 -0.948783,0.303857 -0.341065,0.241846 -0.341065,0.613916 0,0.365869 0.272852,0.632519 0.272851,0.266651 0.694531,0.266651 0.471285,0 0.899175,-0.310059 0.31625,-0.235644 0.41547,-0.576709 0.0682,-0.223242 0.0682,-0.84956 z"
         style="stroke-width:0.26458332"
         id="path928" />
      <path
         d="m 110.37801,32.733441 -1.71772,0.310059 q -0.0868,-0.514697 -0.39688,-0.775147 -0.30386,-0.260449 -0.79375,-0.260449 -0.65112,0 -1.0418,0.452686 -0.38447,0.446484 -0.38447,1.500683 0,1.172022 0.39068,1.655713 0.39687,0.483692 1.0604,0.483692 0.49609,0 0.81235,-0.279053 0.31626,-0.285254 0.44648,-0.973584 l 1.71153,0.291455 q -0.26665,1.178223 -1.0232,1.779736 -0.75654,0.601514 -2.02778,0.601514 -1.44487,0 -2.30684,-0.911572 -0.85576,-0.911573 -0.85576,-2.523877 0,-1.630908 0.86197,-2.53628 0.86196,-0.911572 2.33164,-0.911572 1.20302,0 1.90996,0.520899 0.71313,0.514697 1.02319,1.575097 z"
         style="stroke-width:0.26458332"
         id="path930" />
      <path
         d="M 111.70506,29.893305 V 28.281 h 1.74253 v 1.612305 z m 0,7.478613 v -6.585645 h 1.74253 v 6.585645 z"
         style="stroke-width:0.26458332"
         id="path932" />
      <path
         d="m 121.21766,37.371918 h -1.74253 v -3.361035 q 0,-1.066602 -0.11162,-1.376661 -0.11162,-0.316259 -0.36587,-0.489892 -0.24805,-0.173633 -0.60151,-0.173633 -0.45269,0 -0.81236,0.248047 -0.35966,0.248047 -0.49609,0.657324 -0.13022,0.409278 -0.13022,1.513086 v 2.982764 h -1.74253 v -6.585645 h 1.6185 v 0.967383 q 0.86196,-1.116211 2.17041,-1.116211 0.57671,0 1.0542,0.21084 0.47749,0.204639 0.71934,0.5271 0.24804,0.322461 0.34106,0.731738 0.0992,0.409277 0.0992,1.172021 z"
         style="stroke-width:0.26458332"
         id="path934" />
      <path
         d="m 122.82996,37.806 1.99058,0.241845 q 0.0496,0.347266 0.22944,0.477491 0.24805,0.186035 0.78135,0.186035 0.68213,0 1.02319,-0.204639 0.22945,-0.136426 0.34727,-0.440283 0.0806,-0.217041 0.0806,-0.799951 v -0.961182 q -0.78135,1.066602 -1.97198,1.066602 -1.32705,0 -2.10219,-1.122412 -0.60772,-0.886768 -0.60772,-2.207618 0,-1.655712 0.79375,-2.530078 0.79995,-0.874365 1.98438,-0.874365 1.22163,0 2.01538,1.072803 v -0.923975 h 1.6309 v 5.909717 q 0,1.16582 -0.19223,1.742529 -0.19224,0.576709 -0.5395,0.905371 -0.34727,0.328662 -0.93018,0.514698 -0.57671,0.186035 -1.46348,0.186035 -1.67431,0 -2.37504,-0.576709 -0.70074,-0.570508 -0.70074,-1.451074 0,-0.08682 0.006,-0.21084 z m 1.5565,-3.86333 q 0,1.047998 0.40307,1.53789 0.40928,0.483692 1.00459,0.483692 0.63872,0 1.07901,-0.496094 0.44028,-0.502295 0.44028,-1.48208 0,-1.023193 -0.42168,-1.519287 -0.42168,-0.496094 -1.0666,-0.496094 -0.62632,0 -1.0356,0.489893 -0.40307,0.483691 -0.40307,1.48208 z"
         style="stroke-width:0.26458332"
         id="path936" />
    </g>
    <g
       aria-label="Spacing"
       style="font-style:normal;font-variant:normal;font-weight:bold;font-stretch:normal;font-size:12.69999981px;line-height:1.25;font-family:Arial;-inkscape-font-specification:'Arial Bold';text-align:center;letter-spacing:0px;word-spacing:0px;text-anchor:middle;fill:#000000;fill-opacity:1;stroke:none;stroke-width:0.26458332"
       id="text2">
      <path
         d="m 145.74102,34.288341 1.78593,-0.173633 q 0.16123,0.89917 0.65113,1.32085 0.49609,0.421679 1.33325,0.421679 0.88677,0 1.33325,-0.37207 0.45269,-0.378272 0.45269,-0.880566 0,-0.322461 -0.19224,-0.545704 -0.18604,-0.229443 -0.65732,-0.396875 -0.32247,-0.111621 -1.46968,-0.396875 -1.47588,-0.365869 -2.07119,-0.899169 -0.83716,-0.750342 -0.83716,-1.829346 0,-0.694531 0.39067,-1.296045 0.39688,-0.607715 1.13482,-0.923975 0.74414,-0.316259 1.79213,-0.316259 1.71153,0 2.57349,0.750341 0.86817,0.750342 0.91157,2.002979 l -1.83554,0.08062 q -0.11783,-0.700732 -0.5085,-1.00459 -0.38447,-0.310058 -1.15962,-0.310058 -0.79995,0 -1.25264,0.328662 -0.29145,0.21084 -0.29145,0.564306 0,0.322461 0.27285,0.551905 0.34727,0.291455 1.68672,0.607715 1.33945,0.316259 1.97817,0.657324 0.64493,0.334863 1.00459,0.923974 0.36587,0.582911 0.36587,1.444873 0,0.781348 -0.43408,1.463477 -0.43408,0.682129 -1.22783,1.016992 -0.79375,0.328662 -1.97818,0.328662 -1.72392,0 -2.6479,-0.79375 -0.92397,-0.799951 -1.1038,-2.325439 z"
         style="stroke-width:0.26458332"
         id="path939" />
      <path
         d="m 154.6273,30.660655 h 1.6247 v 0.967383 q 0.31626,-0.496094 0.85576,-0.806152 0.53951,-0.310059 1.19683,-0.310059 1.14722,0 1.94717,0.89917 0.79995,0.89917 0.79995,2.505273 0,1.649512 -0.80615,2.567286 -0.80616,0.911572 -1.95337,0.911572 -0.54571,0 -0.99219,-0.217041 -0.44028,-0.217041 -0.93018,-0.744141 v 3.317627 h -1.74252 z m 1.72392,3.181201 q 0,1.11001 0.44028,1.643311 0.44029,0.5271 1.07281,0.5271 0.60771,0 1.01079,-0.483692 0.40307,-0.489892 0.40307,-1.599902 0,-1.035596 -0.41547,-1.537891 -0.41548,-0.502295 -1.0294,-0.502295 -0.63872,0 -1.0604,0.496094 -0.42168,0.489893 -0.42168,1.457275 z"
         style="stroke-width:0.26458332"
         id="path941" />
      <path
         d="m 163.74302,32.669835 -1.5813,-0.285254 q 0.26665,-0.95498 0.91777,-1.413867 0.65113,-0.458887 1.93477,-0.458887 1.16582,0 1.73633,0.279053 0.5705,0.272851 0.79995,0.700732 0.23564,0.42168 0.23564,1.556494 l -0.0186,2.033985 q 0,0.868164 0.0806,1.283642 0.0868,0.409278 0.31626,0.880567 h -1.72392 q -0.0682,-0.173633 -0.16743,-0.514698 -0.0434,-0.155029 -0.062,-0.204638 -0.44648,0.434082 -0.95498,0.651123 -0.50849,0.217041 -1.0852,0.217041 -1.01699,0 -1.6061,-0.551904 -0.58291,-0.551905 -0.58291,-1.395264 0,-0.558106 0.26665,-0.992188 0.26665,-0.440283 0.74414,-0.669726 0.48369,-0.235645 1.38906,-0.409277 1.22163,-0.229444 1.69292,-0.427881 v -0.173633 q 0,-0.502295 -0.24805,-0.713135 -0.24805,-0.217041 -0.93638,-0.217041 -0.46508,0 -0.72553,0.186035 -0.26045,0.179834 -0.42168,0.638721 z m 2.33164,1.413867 q -0.33486,0.111621 -1.0604,0.266651 -0.72554,0.155029 -0.94878,0.303857 -0.34107,0.241846 -0.34107,0.613916 0,0.365869 0.27286,0.632519 0.27285,0.266651 0.69453,0.266651 0.47129,0 0.89917,-0.310059 0.31626,-0.235644 0.41548,-0.576709 0.0682,-0.223242 0.0682,-0.84956 z"
         style="stroke-width:0.26458332"
         id="path943" />
      <path
         d="m 175.25239,32.607823 -1.71772,0.310059 q -0.0868,-0.514697 -0.39688,-0.775147 -0.30385,-0.260449 -0.79375,-0.260449 -0.65112,0 -1.04179,0.452686 -0.38448,0.446484 -0.38448,1.500683 0,1.172022 0.39068,1.655713 0.39687,0.483692 1.0604,0.483692 0.49609,0 0.81235,-0.279053 0.31626,-0.285254 0.44649,-0.973584 l 1.71152,0.291455 q -0.26665,1.178223 -1.02319,1.779736 -0.75655,0.601514 -2.02779,0.601514 -1.44487,0 -2.30683,-0.911572 -0.85576,-0.911573 -0.85576,-2.523877 0,-1.630908 0.86196,-2.53628 0.86196,-0.911572 2.33164,-0.911572 1.20303,0 1.90996,0.520899 0.71313,0.514697 1.02319,1.575097 z"
         style="stroke-width:0.26458332"
         id="path945" />
      <path
         d="m 176.57944,29.767687 v -1.612305 h 1.74253 v 1.612305 z m 0,7.478613 v -6.585645 h 1.74253 V 37.2463 Z"
         style="stroke-width:0.26458332"
         id="path947" />
      <path
         d="m 186.09204,37.2463 h -1.74253 v -3.361035 q 0,-1.066602 -0.11162,-1.37666 -0.11162,-0.31626 -0.36587,-0.489893 -0.24804,-0.173633 -0.60151,-0.173633 -0.45269,0 -0.81235,0.248047 -0.35967,0.248047 -0.4961,0.657324 -0.13022,0.409278 -0.13022,1.513086 V 37.2463 h -1.74253 v -6.585645 h 1.6185 v 0.967383 q 0.86197,-1.116211 2.17041,-1.116211 0.57671,0 1.0542,0.21084 0.47749,0.204639 0.71934,0.5271 0.24805,0.322461 0.34106,0.731738 0.0992,0.409277 0.0992,1.172021 z"
         style="stroke-width:0.26458332"
         id="path949" />
      <path
         d="m 187.70435,37.680382 1.99057,0.241845 q 0.0496,0.347266 0.22945,0.477491 0.24804,0.186035 0.78134,0.186035 0.68213,0 1.0232,-0.204639 0.22944,-0.136426 0.34726,-0.440283 0.0806,-0.217041 0.0806,-0.799951 v -0.961182 q -0.78135,1.066602 -1.97198,1.066602 -1.32705,0 -2.10219,-1.122412 -0.60772,-0.886768 -0.60772,-2.207618 0,-1.655712 0.79375,-2.530078 0.79995,-0.874365 1.98438,-0.874365 1.22163,0 2.01538,1.072803 v -0.923975 h 1.63091 v 5.909717 q 0,1.16582 -0.19224,1.742529 -0.19224,0.576709 -0.5395,0.905371 -0.34727,0.328662 -0.93018,0.514698 -0.57671,0.186035 -1.46347,0.186035 -1.67432,0 -2.37505,-0.576709 -0.70074,-0.570508 -0.70074,-1.451074 0,-0.08682 0.006,-0.21084 z m 1.55649,-3.86333 q 0,1.047998 0.40308,1.53789 0.40927,0.483692 1.00459,0.483692 0.63872,0 1.079,-0.496094 0.44028,-0.502295 0.44028,-1.48208 0,-1.023193 -0.42168,-1.519287 -0.42168,-0.496094 -1.0666,-0.496094 -0.62632,0 -1.03559,0.489893 -0.40308,0.483691 -0.40308,1.48208 z"
         style="stroke-width:0.26458332"
         id="path951" />
    </g>
    <g
       aria-label="Width &amp; spacing combo"
       style="font-style:normal;font-variant:normal;font-weight:bold;font-stretch:normal;font-size:12px;line-height:1.25;font-family:Arial;-inkscape-font-specification:'Arial Bold';text-align:center;letter-spacing:0px;word-spacing:0px;text-anchor:middle;fill:#000000;fill-opacity:1;stroke:none;stroke-width:0.25"
       id="textws1">
      <path
         d="m 16.640187,32 -0.72347,-3.030306 h 0.626318 l 0.45682,2.081527 0.553971,-2.081527 h 0.727604 l 0.531234,2.116667 0.465088,-2.116667 h 0.615983 L 19.157862,32 H 18.508806 L 17.905226,29.734505 17.303712,32 Z"
         style="font-size:4.23333311px;line-height:0px;text-align:center;text-anchor:middle;stroke-width:0.26458332"
         id="path887" />
      <path
         d="m 20.166586,29.507129 v -0.537435 h 0.580843 v 0.537435 z m 0,2.492871 v -2.195215 h 0.580843 V 32 Z"
         style="font-size:4.23333311px;line-height:0px;text-align:center;text-anchor:middle;stroke-width:0.26458332"
         id="path889" />
      <path
         d="m 23.353989,32 h -0.539502 v -0.322461 q -0.134359,0.188102 -0.318327,0.28112 -0.181901,0.09095 -0.367936,0.09095 -0.378272,0 -0.649056,-0.303857 -0.268718,-0.305924 -0.268718,-0.851628 0,-0.558105 0.262517,-0.847493 0.262516,-0.291455 0.663525,-0.291455 0.367936,0 0.636654,0.305924 v -1.091406 h 0.580843 z m -1.550293,-1.14515 q 0,0.3514 0.09715,0.508496 0.14056,0.227377 0.392741,0.227377 0.200505,0 0.341065,-0.169499 0.14056,-0.171566 0.14056,-0.510563 0,-0.378272 -0.136426,-0.543636 -0.136426,-0.167432 -0.349333,-0.167432 -0.206706,0 -0.347265,0.165365 -0.138493,0.163297 -0.138493,0.489892 z"
         style="font-size:4.23333311px;line-height:0px;text-align:center;text-anchor:middle;stroke-width:0.26458332"
         id="path891" />
      <path
         d="m 24.935287,29.804785 v 0.463021 h -0.396875 v 0.884701 q 0,0.268717 0.01034,0.314192 0.0124,0.04341 0.05168,0.07235 0.04134,0.02894 0.09922,0.02894 0.08062,0 0.233577,-0.05581 l 0.04961,0.450618 q -0.202572,0.08682 -0.458887,0.08682 -0.157097,0 -0.283187,-0.05168 -0.12609,-0.05374 -0.186035,-0.136426 -0.05788,-0.08475 -0.08062,-0.227376 -0.0186,-0.101286 -0.0186,-0.409277 v -0.957048 h -0.26665 v -0.463021 h 0.26665 v -0.436149 l 0.58291,-0.338997 v 0.775146 z"
         style="font-size:4.23333311px;line-height:0px;text-align:center;text-anchor:middle;stroke-width:0.26458332"
         id="path893" />
      <path
         d="m 25.921273,28.969694 v 1.114144 q 0.28112,-0.328662 0.671794,-0.328662 0.200505,0 0.361735,0.07441 0.16123,0.07441 0.241846,0.190169 0.08268,0.115755 0.111621,0.256315 0.03101,0.14056 0.03101,0.436149 V 32 h -0.580843 v -1.159619 q 0,-0.345199 -0.03307,-0.438216 -0.03307,-0.09302 -0.117823,-0.146761 -0.08268,-0.05581 -0.208772,-0.05581 -0.144694,0 -0.258383,0.07028 -0.113688,0.07028 -0.167431,0.212907 -0.05168,0.14056 -0.05168,0.417546 V 32 H 25.34043 v -3.030306 z"
         style="font-size:4.23333311px;line-height:0px;text-align:center;text-anchor:middle;stroke-width:0.26458332"
         id="path895" />
      <path
         d="m 31.789649,31.629997 -0.3514,0.448551 q -0.258382,-0.12609 -0.496094,-0.347265 -0.183968,0.165364 -0.390674,0.243912 -0.206705,0.07855 -0.491959,0.07855 -0.566374,0 -0.851628,-0.318326 -0.221175,-0.24598 -0.221175,-0.566374 0,-0.291455 0.173633,-0.522965 0.173633,-0.233578 0.518831,-0.405144 -0.155029,-0.183968 -0.233577,-0.349332 -0.07855,-0.167432 -0.07855,-0.31626 0,-0.274919 0.219108,-0.465088 0.221175,-0.192236 0.628385,-0.192236 0.392741,0 0.613916,0.200504 0.221175,0.200505 0.221175,0.489893 0,0.183968 -0.109554,0.349333 -0.109554,0.165364 -0.44235,0.374137 l 0.42168,0.556038 q 0.07441,-0.132291 0.128157,-0.345198 l 0.525033,0.119889 q -0.07855,0.279053 -0.136426,0.409277 -0.05788,0.128158 -0.124024,0.214974 0.09715,0.09095 0.250114,0.200505 0.15503,0.107487 0.227377,0.142627 z m -1.581299,-1.647445 0.157096,-0.119889 q 0.173633,-0.134359 0.173633,-0.266651 0,-0.111621 -0.08475,-0.190169 -0.08268,-0.07855 -0.22531,-0.07855 -0.138492,0 -0.217041,0.07028 -0.07855,0.06821 -0.07855,0.159163 0,0.107487 0.132292,0.26045 z m -0.227376,0.630453 q -0.200505,0.101285 -0.299724,0.243912 -0.09922,0.142627 -0.09922,0.291455 0,0.188103 0.121956,0.307992 0.124023,0.117822 0.330729,0.117822 0.136426,0 0.262516,-0.05374 0.126091,-0.05374 0.274919,-0.177767 z"
         style="font-size:4.23333311px;line-height:0px;text-align:center;text-anchor:middle;stroke-width:0.26458332"
         id="path897" />
      <path
         d="m 33.133235,31.373682 0.58291,-0.08888 q 0.03721,0.169499 0.150896,0.258382 0.113688,0.08682 0.318326,0.08682 0.22531,0 0.338998,-0.08268 0.07648,-0.05788 0.07648,-0.155029 0,-0.06615 -0.04134,-0.109554 -0.04341,-0.04134 -0.194304,-0.07648 -0.702799,-0.155029 -0.890901,-0.283187 -0.260449,-0.177767 -0.260449,-0.494026 0,-0.285254 0.225309,-0.479558 0.225309,-0.194303 0.698665,-0.194303 0.450619,0 0.669727,0.146761 0.219108,0.146761 0.30179,0.434082 l -0.54777,0.101286 q -0.03514,-0.128158 -0.134359,-0.196371 -0.09715,-0.06821 -0.279053,-0.06821 -0.229443,0 -0.328662,0.06408 -0.06615,0.04547 -0.06615,0.117822 0,0.06201 0.05788,0.10542 0.07855,0.05788 0.541569,0.163298 0.465088,0.10542 0.649056,0.258382 0.181901,0.155029 0.181901,0.432015 0,0.30179 -0.252181,0.518831 -0.252181,0.217041 -0.746208,0.217041 -0.448551,0 -0.711067,-0.181901 -0.260449,-0.181901 -0.341065,-0.494026 z"
         style="font-size:4.23333311px;line-height:0px;text-align:center;text-anchor:middle;stroke-width:0.26458332"
         id="path899" />
      <path
         d="m 35.677783,29.804785 h 0.541569 v 0.322461 q 0.10542,-0.165364 0.285254,-0.268717 0.179834,-0.103353 0.398942,-0.103353 0.382405,0 0.649056,0.299723 0.26665,0.299723 0.26665,0.835091 0,0.549838 -0.268717,0.855762 -0.268718,0.303857 -0.651123,0.303857 -0.181901,0 -0.33073,-0.07235 -0.146761,-0.07235 -0.310058,-0.248046 v 1.105875 h -0.580843 z m 0.574642,1.060401 q 0,0.370003 0.146761,0.54777 0.146761,0.1757 0.357601,0.1757 0.202571,0 0.33693,-0.161231 0.134359,-0.163297 0.134359,-0.533301 0,-0.345198 -0.138493,-0.51263 -0.138493,-0.167431 -0.343132,-0.167431 -0.212907,0 -0.353466,0.165364 -0.14056,0.163298 -0.14056,0.485759 z"
         style="font-size:4.23333311px;line-height:0px;text-align:center;text-anchor:middle;stroke-width:0.26458332"
         id="path901" />
      <path
         d="m 38.716357,30.474512 -0.5271,-0.09509 q 0.08888,-0.318327 0.305925,-0.471289 0.217041,-0.152962 0.644921,-0.152962 0.388607,0 0.578776,0.09302 0.19017,0.09095 0.266651,0.233578 0.07855,0.14056 0.07855,0.518831 l -0.0062,0.677995 q 0,0.289388 0.02687,0.427881 0.02894,0.136426 0.10542,0.293522 h -0.574642 q -0.02274,-0.05788 -0.05581,-0.171566 -0.01447,-0.05168 -0.02067,-0.06821 -0.148829,0.144694 -0.318327,0.217041 -0.169499,0.07235 -0.361735,0.07235 -0.338998,0 -0.535368,-0.183968 -0.194303,-0.183968 -0.194303,-0.465088 0,-0.186035 0.08888,-0.330729 0.08888,-0.146761 0.248047,-0.223242 0.16123,-0.07855 0.463021,-0.136426 0.40721,-0.07648 0.564306,-0.142627 v -0.05788 q 0,-0.167432 -0.08268,-0.237712 -0.08268,-0.07235 -0.312126,-0.07235 -0.155029,0 -0.241845,0.06201 -0.08682,0.05994 -0.14056,0.212907 z m 0.777213,0.471289 q -0.111621,0.03721 -0.353467,0.08888 -0.241845,0.05168 -0.316259,0.101286 -0.113688,0.08061 -0.113688,0.204639 0,0.121956 0.09095,0.21084 0.09095,0.08888 0.23151,0.08888 0.157097,0 0.299724,-0.103353 0.10542,-0.07855 0.138493,-0.192236 0.02274,-0.07441 0.02274,-0.283187 z"
         style="font-size:4.23333311px;line-height:0px;text-align:center;text-anchor:middle;stroke-width:0.26458332"
         id="path903" />
      <path
         d="m 42.552815,30.453841 -0.572575,0.103353 q -0.02894,-0.171566 -0.132292,-0.258382 -0.101285,-0.08682 -0.264583,-0.08682 -0.217041,0 -0.347265,0.150895 -0.128158,0.148828 -0.128158,0.500228 0,0.390673 0.130225,0.551904 0.132291,0.16123 0.353466,0.16123 0.165365,0 0.270785,-0.09302 0.10542,-0.09509 0.148828,-0.324528 l 0.570508,0.09715 q -0.08888,0.392741 -0.341065,0.593246 -0.252181,0.200504 -0.675927,0.200504 -0.481625,0 -0.768946,-0.303857 -0.285253,-0.303857 -0.285253,-0.841292 0,-0.543636 0.28732,-0.845427 0.287321,-0.303857 0.777214,-0.303857 0.401009,0 0.636654,0.173633 0.237711,0.171565 0.341064,0.525032 z"
         style="font-size:4.23333311px;line-height:0px;text-align:center;text-anchor:middle;stroke-width:0.26458332"
         id="path905" />
      <path
         d="m 42.995165,29.507129 v -0.537435 h 0.580843 v 0.537435 z m 0,2.492871 v -2.195215 h 0.580843 V 32 Z"
         style="font-size:4.23333311px;line-height:0px;text-align:center;text-anchor:middle;stroke-width:0.26458332"
         id="path907" />
      <path
         d="m 46.16603,32 h -0.580843 v -1.120345 q 0,-0.355534 -0.03721,-0.458887 -0.03721,-0.10542 -0.121956,-0.163297 -0.08268,-0.05788 -0.200505,-0.05788 -0.150895,0 -0.270784,0.08268 -0.11989,0.08268 -0.165365,0.219109 -0.04341,0.136425 -0.04341,0.504361 V 32 h -0.580843 v -2.195215 h 0.539502 v 0.322461 q 0.287321,-0.37207 0.72347,-0.37207 0.192236,0 0.351399,0.07028 0.159164,0.06821 0.239779,0.1757 0.08268,0.107487 0.113688,0.243912 0.03307,0.136426 0.03307,0.390674 z"
         style="font-size:4.23333311px;line-height:0px;text-align:center;text-anchor:middle;stroke-width:0.26458332"
         id="path909" />
      <path
         d="m 46.703465,32.144694 0.663525,0.08062 q 0.01654,0.115755 0.07648,0.159164 0.08268,0.06201 0.26045,0.06201 0.227376,0 0.341064,-0.06821 0.07648,-0.04547 0.115755,-0.146761 0.02687,-0.07235 0.02687,-0.26665 V 31.644466 Q 47.927163,32 47.530288,32 q -0.44235,0 -0.700733,-0.374137 -0.202571,-0.29559 -0.202571,-0.735873 0,-0.551904 0.264583,-0.843359 0.26665,-0.291455 0.661458,-0.291455 0.407211,0 0.671794,0.357601 v -0.307992 h 0.543636 v 1.969906 q 0,0.388607 -0.06408,0.580843 -0.06408,0.192236 -0.179834,0.30179 -0.115755,0.109554 -0.310058,0.171566 -0.192237,0.06201 -0.487826,0.06201 -0.558105,0 -0.791683,-0.192237 -0.233577,-0.190169 -0.233577,-0.483691 0,-0.02894 0.0021,-0.07028 z m 0.518831,-1.287777 q 0,0.349333 0.134359,0.512631 0.136426,0.16123 0.334863,0.16123 0.212907,0 0.359668,-0.165365 0.146761,-0.167431 0.146761,-0.494026 0,-0.341065 -0.14056,-0.506429 -0.14056,-0.165365 -0.355534,-0.165365 -0.208772,0 -0.345198,0.163298 -0.134359,0.16123 -0.134359,0.494026 z"
         style="font-size:4.23333311px;line-height:0px;text-align:center;text-anchor:middle;stroke-width:0.26458332"
         id="path911" />
      <path
         d="m 52.433348,30.453841 -0.572575,0.103353 q -0.02894,-0.171566 -0.132291,-0.258382 -0.101286,-0.08682 -0.264584,-0.08682 -0.217041,0 -0.347265,0.150895 -0.128158,0.148828 -0.128158,0.500228 0,0.390673 0.130225,0.551904 0.132292,0.16123 0.353467,0.16123 0.165364,0 0.270784,-0.09302 0.10542,-0.09509 0.148828,-0.324528 l 0.570508,0.09715 q -0.08888,0.392741 -0.341064,0.593246 -0.252181,0.200504 -0.675928,0.200504 -0.481624,0 -0.768945,-0.303857 -0.285254,-0.303857 -0.285254,-0.841292 0,-0.543636 0.287321,-0.845427 0.287321,-0.303857 0.777213,-0.303857 0.401009,0 0.636654,0.173633 0.237711,0.171565 0.341064,0.525032 z"
         style="font-size:4.23333311px;line-height:0px;text-align:center;text-anchor:middle;stroke-width:0.26458332"
         id="path913" />
      <path
         d="m 52.74134,30.871387 q 0,-0.289388 0.142627,-0.560173 0.142627,-0.270784 0.403076,-0.413411 0.262516,-0.142627 0.584977,-0.142627 0.498161,0 0.816488,0.324528 0.318327,0.322461 0.318327,0.816487 0,0.498161 -0.322461,0.826823 -0.320394,0.326595 -0.80822,0.326595 -0.30179,0 -0.576709,-0.136425 -0.272851,-0.136426 -0.415478,-0.398942 -0.142627,-0.264584 -0.142627,-0.642855 z m 0.595312,0.03101 q 0,0.326595 0.15503,0.500227 0.155029,0.173633 0.382405,0.173633 0.227376,0 0.380339,-0.173633 0.155029,-0.173632 0.155029,-0.504361 0,-0.322461 -0.155029,-0.496094 -0.152963,-0.173633 -0.380339,-0.173633 -0.227376,0 -0.382405,0.173633 -0.15503,0.173633 -0.15503,0.500228 z"
         style="font-size:4.23333311px;line-height:0px;text-align:center;text-anchor:middle;stroke-width:0.26458332"
         id="path915" />
      <path
         d="m 55.420246,29.804785 h 0.535368 v 0.299724 q 0.287321,-0.349333 0.684196,-0.349333 0.210839,0 0.365869,0.08682 0.155029,0.08682 0.254248,0.262517 0.144694,-0.1757 0.312125,-0.262517 0.167432,-0.08682 0.357601,-0.08682 0.241846,0 0.409278,0.09922 0.167431,0.09715 0.250114,0.287321 0.05994,0.140559 0.05994,0.454752 V 32 h -0.580843 v -1.254704 q 0,-0.326595 -0.05994,-0.421679 -0.08062,-0.124024 -0.248046,-0.124024 -0.121957,0 -0.229444,0.07441 -0.107487,0.07441 -0.155029,0.219108 -0.04754,0.142627 -0.04754,0.452686 V 32 h -0.580843 v -1.203027 q 0,-0.320394 -0.03101,-0.413412 -0.03101,-0.09302 -0.09715,-0.138493 -0.06408,-0.04547 -0.1757,-0.04547 -0.134359,0 -0.241846,0.07235 -0.107487,0.07235 -0.155029,0.208773 -0.04547,0.136426 -0.04547,0.452685 V 32 h -0.580843 z"
         style="font-size:4.23333311px;line-height:0px;text-align:center;text-anchor:middle;stroke-width:0.26458332"
         id="path917" />
      <path
         d="m 59.200892,32 v -3.030306 h 0.580843 V 30.0611 q 0.268718,-0.305924 0.636654,-0.305924 0.401009,0 0.663525,0.291455 0.262517,0.289388 0.262517,0.833024 0,0.56224 -0.268718,0.866097 -0.26665,0.303857 -0.649056,0.303857 -0.188102,0 -0.37207,-0.09302 -0.181901,-0.09509 -0.314193,-0.279053 V 32 Z m 0.576709,-1.14515 q 0,0.341065 0.107487,0.504362 0.150895,0.231511 0.401009,0.231511 0.192237,0 0.326595,-0.163298 0.136426,-0.165364 0.136426,-0.518831 0,-0.376205 -0.136426,-0.541569 -0.136425,-0.167432 -0.349332,-0.167432 -0.208773,0 -0.347266,0.163298 -0.138493,0.16123 -0.138493,0.491959 z"
         style="font-size:4.23333311px;line-height:0px;text-align:center;text-anchor:middle;stroke-width:0.26458332"
         id="path919" />
      <path
         d="m 61.679294,30.871387 q 0,-0.289388 0.142627,-0.560173 0.142627,-0.270784 0.403076,-0.413411 0.262516,-0.142627 0.584977,-0.142627 0.498161,0 0.816488,0.324528 0.318326,0.322461 0.318326,0.816487 0,0.498161 -0.32246,0.826823 -0.320394,0.326595 -0.80822,0.326595 -0.30179,0 -0.576709,-0.136425 -0.272851,-0.136426 -0.415478,-0.398942 -0.142627,-0.264584 -0.142627,-0.642855 z m 0.595312,0.03101 q 0,0.326595 0.15503,0.500227 0.155029,0.173633 0.382405,0.173633 0.227376,0 0.380339,-0.173633 0.155029,-0.173632 0.155029,-0.504361 0,-0.322461 -0.155029,-0.496094 -0.152963,-0.173633 -0.380339,-0.173633 -0.227376,0 -0.382405,0.173633 -0.15503,0.173633 -0.15503,0.500228 z"
         style="font-size:4.23333311px;line-height:0px;text-align:center;text-anchor:middle;stroke-width:0.26458332"
         id="path921" />
    </g>
    <g
       aria-label="for external perimeter"
       style="font-style:normal;font-variant:normal;font-weight:bold;font-stretch:normal;font-size:12px;line-height:1.25;font-family:Arial;-inkscape-font-specification:'Arial Bold';text-align:center;letter-spacing:0px;word-spacing:0px;text-anchor:middle;fill:#000000;fill-opacity:1;stroke:none;stroke-width:0.25"
       id="textcf1">
      <path
         d="m 18.279363,33.804785 h 0.322461 v -0.165364 q 0,-0.276986 0.05788,-0.413412 0.05994,-0.136426 0.217041,-0.221175 0.159163,-0.08682 0.401009,-0.08682 0.248047,0 0.485758,0.07441 l -0.07855,0.405143 q -0.138493,-0.03307 -0.26665,-0.03307 -0.126091,0 -0.181901,0.05994 -0.05374,0.05788 -0.05374,0.225309 v 0.155029 h 0.434082 v 0.45682 H 19.182667 V 36 h -0.580843 v -1.738395 h -0.322461 z"
         style="font-size:4.23333311px;line-height:0px;text-align:center;text-anchor:middle;stroke-width:0.26458332"
         id="path846" />
      <path
         d="m 19.81312,34.871387 q 0,-0.289388 0.142626,-0.560173 0.142627,-0.270784 0.403077,-0.413411 0.262516,-0.142627 0.584977,-0.142627 0.498161,0 0.816487,0.324528 0.318327,0.322461 0.318327,0.816487 0,0.498161 -0.322461,0.826823 -0.320394,0.326595 -0.808219,0.326595 -0.30179,0 -0.576709,-0.136425 -0.272852,-0.136426 -0.415479,-0.398942 -0.142626,-0.264584 -0.142626,-0.642855 z m 0.595312,0.03101 q 0,0.326595 0.155029,0.500227 0.15503,0.173633 0.382406,0.173633 0.227376,0 0.380338,-0.173633 0.15503,-0.173632 0.15503,-0.504361 0,-0.322461 -0.15503,-0.496094 -0.152962,-0.173633 -0.380338,-0.173633 -0.227376,0 -0.382406,0.173633 -0.155029,0.173633 -0.155029,0.500228 z"
         style="font-size:4.23333311px;line-height:0px;text-align:center;text-anchor:middle;stroke-width:0.26458332"
         id="path848" />
      <path
         d="m 23.091472,36 h -0.580843 v -2.195215 h 0.539502 v 0.312126 q 0.138493,-0.221175 0.248047,-0.291455 0.111621,-0.07028 0.252181,-0.07028 0.198437,0 0.382405,0.109554 l -0.179834,0.506429 q -0.146761,-0.09508 -0.272851,-0.09508 -0.121957,0 -0.206706,0.06821 -0.08475,0.06615 -0.134359,0.241846 -0.04754,0.1757 -0.04754,0.735872 z"
         style="font-size:4.23333311px;line-height:0px;text-align:center;text-anchor:middle;stroke-width:0.26458332"
         id="path850" />
      <path
         d="m 26.62614,35.301335 0.578776,0.09715 q -0.111621,0.318327 -0.353467,0.485759 -0.239778,0.165364 -0.601513,0.165364 -0.572575,0 -0.847494,-0.374137 -0.217041,-0.299723 -0.217041,-0.756543 0,-0.545703 0.285254,-0.853695 0.285254,-0.310058 0.721403,-0.310058 0.489892,0 0.773079,0.324528 0.283187,0.322461 0.270785,0.99012 h -1.455208 q 0.0062,0.258382 0.140559,0.403076 0.134359,0.142627 0.334864,0.142627 0.136425,0 0.229443,-0.07441 0.09302,-0.07441 0.14056,-0.239778 z m 0.03307,-0.587045 q -0.0062,-0.252181 -0.130225,-0.382405 -0.124023,-0.132292 -0.30179,-0.132292 -0.190169,0 -0.314193,0.138493 -0.124023,0.138493 -0.121956,0.376204 z"
         style="font-size:4.23333311px;line-height:0px;text-align:center;text-anchor:middle;stroke-width:0.26458332"
         id="path852" />
      <path
         d="m 27.432292,36 0.791683,-1.13068 -0.75861,-1.064535 h 0.709 l 0.388607,0.603581 0.409277,-0.603581 h 0.682129 l -0.74414,1.03973 L 29.722591,36 H 29.009456 L 28.562972,35.319938 28.112354,36 Z"
         style="font-size:4.23333311px;line-height:0px;text-align:center;text-anchor:middle;stroke-width:0.26458332"
         id="path854" />
      <path
         d="m 31.074447,33.804785 v 0.463021 h -0.396875 v 0.884701 q 0,0.268717 0.01033,0.314192 0.0124,0.04341 0.05168,0.07235 0.04134,0.02894 0.09922,0.02894 0.08061,0 0.233578,-0.05581 l 0.04961,0.450618 q -0.202572,0.08682 -0.458887,0.08682 -0.157096,0 -0.283186,-0.05168 -0.126091,-0.05374 -0.186036,-0.136426 -0.05788,-0.08475 -0.08062,-0.227376 -0.0186,-0.101286 -0.0186,-0.409277 v -0.957048 h -0.266651 v -0.463021 h 0.266651 v -0.436149 l 0.58291,-0.338997 v 0.775146 z"
         style="font-size:4.23333311px;line-height:0px;text-align:center;text-anchor:middle;stroke-width:0.26458332"
         id="path856" />
      <path
         d="m 32.752897,35.301335 0.578776,0.09715 q -0.111621,0.318327 -0.353467,0.485759 -0.239778,0.165364 -0.601513,0.165364 -0.572575,0 -0.847494,-0.374137 -0.217041,-0.299723 -0.217041,-0.756543 0,-0.545703 0.285254,-0.853695 0.285254,-0.310058 0.721403,-0.310058 0.489893,0 0.773079,0.324528 0.283187,0.322461 0.270785,0.99012 h -1.455208 q 0.0062,0.258382 0.14056,0.403076 0.134358,0.142627 0.334863,0.142627 0.136426,0 0.229443,-0.07441 0.09302,-0.07441 0.14056,-0.239778 z m 0.03307,-0.587045 q -0.0062,-0.252181 -0.130225,-0.382405 -0.124023,-0.132292 -0.30179,-0.132292 -0.190169,0 -0.314193,0.138493 -0.124023,0.138493 -0.121956,0.376204 z"
         style="font-size:4.23333311px;line-height:0px;text-align:center;text-anchor:middle;stroke-width:0.26458332"
         id="path858" />
      <path
         d="m 34.394141,36 h -0.580843 v -2.195215 h 0.539501 v 0.312126 q 0.138493,-0.221175 0.248047,-0.291455 0.111621,-0.07028 0.252181,-0.07028 0.198438,0 0.382406,0.109554 l -0.179834,0.506429 q -0.146761,-0.09508 -0.272852,-0.09508 -0.121956,0 -0.206705,0.06821 -0.08475,0.06615 -0.134359,0.241846 -0.04754,0.1757 -0.04754,0.735872 z"
         style="font-size:4.23333311px;line-height:0px;text-align:center;text-anchor:middle;stroke-width:0.26458332"
         id="path860" />
      <path
         d="m 37.480258,36 h -0.580844 v -1.120345 q 0,-0.355534 -0.03721,-0.458887 -0.03721,-0.10542 -0.121956,-0.163297 -0.08268,-0.05788 -0.200504,-0.05788 -0.150896,0 -0.270785,0.08268 -0.119889,0.08268 -0.165365,0.219109 -0.04341,0.136425 -0.04341,0.504361 V 36 h -0.580843 v -2.195215 h 0.539502 v 0.322461 q 0.287321,-0.37207 0.72347,-0.37207 0.192236,0 0.3514,0.07028 0.159163,0.06821 0.239778,0.1757 0.08268,0.107487 0.113689,0.243912 0.03307,0.136426 0.03307,0.390674 z"
         style="font-size:4.23333311px;line-height:0px;text-align:center;text-anchor:middle;stroke-width:0.26458332"
         id="path862" />
      <path
         d="m 38.505518,34.474512 -0.5271,-0.09508 q 0.08888,-0.318327 0.305925,-0.471289 0.217041,-0.152962 0.644922,-0.152962 0.388606,0 0.578776,0.09302 0.190169,0.09095 0.26665,0.233578 0.07855,0.14056 0.07855,0.518831 l -0.0062,0.677995 q 0,0.289388 0.02687,0.427881 0.02894,0.136426 0.10542,0.293522 h -0.574642 q -0.02274,-0.05788 -0.05581,-0.171566 -0.01447,-0.05168 -0.02067,-0.06821 -0.148829,0.144694 -0.318327,0.217041 -0.169499,0.07235 -0.361735,0.07235 -0.338998,0 -0.535368,-0.183968 -0.194303,-0.183968 -0.194303,-0.465088 0,-0.186035 0.08888,-0.330729 0.08888,-0.146761 0.248047,-0.223242 0.16123,-0.07855 0.463021,-0.136426 0.40721,-0.07648 0.564306,-0.142627 v -0.05788 q 0,-0.167432 -0.08268,-0.237712 -0.08268,-0.07235 -0.312126,-0.07235 -0.155029,0 -0.241845,0.06201 -0.08682,0.05994 -0.14056,0.212907 z m 0.777213,0.471289 q -0.111621,0.03721 -0.353466,0.08888 -0.241846,0.05168 -0.31626,0.101286 -0.113688,0.08062 -0.113688,0.204639 0,0.121956 0.09095,0.21084 0.09095,0.08888 0.231511,0.08888 0.157096,0 0.299723,-0.103353 0.10542,-0.07855 0.138493,-0.192236 0.02274,-0.07441 0.02274,-0.283187 z"
         style="font-size:4.23333311px;line-height:0px;text-align:center;text-anchor:middle;stroke-width:0.26458332"
         id="path864" />
      <path
         d="m 40.427879,36 v -3.030306 h 0.580843 V 36 Z"
         style="font-size:4.23333311px;line-height:0px;text-align:center;text-anchor:middle;stroke-width:0.26458332"
         id="path866" />
      <path
         d="m 42.759522,33.804785 h 0.541569 v 0.322461 q 0.105419,-0.165364 0.285253,-0.268717 0.179834,-0.103353 0.398943,-0.103353 0.382405,0 0.649055,0.299723 0.266651,0.299723 0.266651,0.835091 0,0.549838 -0.268718,0.855762 -0.268717,0.303857 -0.651123,0.303857 -0.181901,0 -0.330729,-0.07235 -0.146761,-0.07235 -0.310058,-0.248046 v 1.105875 h -0.580843 z m 0.574641,1.060401 q 0,0.370003 0.146762,0.54777 0.146761,0.1757 0.3576,0.1757 0.202572,0 0.336931,-0.161231 0.134358,-0.163297 0.134358,-0.533301 0,-0.345198 -0.138492,-0.51263 -0.138493,-0.167431 -0.343132,-0.167431 -0.212907,0 -0.353467,0.165364 -0.14056,0.163298 -0.14056,0.485759 z"
         style="font-size:4.23333311px;line-height:0px;text-align:center;text-anchor:middle;stroke-width:0.26458332"
         id="path868" />
      <path
         d="m 46.635254,35.301335 0.578776,0.09715 q -0.111621,0.318327 -0.353467,0.485759 -0.239779,0.165364 -0.601514,0.165364 -0.572575,0 -0.847493,-0.374137 -0.217041,-0.299723 -0.217041,-0.756543 0,-0.545703 0.285254,-0.853695 0.285254,-0.310058 0.721403,-0.310058 0.489892,0 0.773079,0.324528 0.283187,0.322461 0.270785,0.99012 h -1.455209 q 0.0062,0.258382 0.14056,0.403076 0.134359,0.142627 0.334863,0.142627 0.136426,0 0.229444,-0.07441 0.09302,-0.07441 0.14056,-0.239778 z m 0.03307,-0.587045 q -0.0062,-0.252181 -0.130225,-0.382405 -0.124023,-0.132292 -0.30179,-0.132292 -0.19017,0 -0.314193,0.138493 -0.124023,0.138493 -0.121956,0.376204 z"
         style="font-size:4.23333311px;line-height:0px;text-align:center;text-anchor:middle;stroke-width:0.26458332"
         id="path870" />
      <path
         d="m 48.276495,36 h -0.580843 v -2.195215 h 0.539502 v 0.312126 q 0.138493,-0.221175 0.248047,-0.291455 0.111621,-0.07028 0.252181,-0.07028 0.198438,0 0.382406,0.109554 l -0.179834,0.506429 q -0.146761,-0.09508 -0.272852,-0.09508 -0.121956,0 -0.206706,0.06821 -0.08475,0.06615 -0.134358,0.241846 -0.04754,0.1757 -0.04754,0.735872 z"
         style="font-size:4.23333311px;line-height:0px;text-align:center;text-anchor:middle;stroke-width:0.26458332"
         id="path872" />
      <path
         d="m 49.365835,33.507129 v -0.537435 h 0.580843 v 0.537435 z m 0,2.492871 v -2.195215 h 0.580843 V 36 Z"
         style="font-size:4.23333311px;line-height:0px;text-align:center;text-anchor:middle;stroke-width:0.26458332"
         id="path874" />
      <path
         d="m 50.496516,33.804785 h 0.535368 v 0.299724 q 0.287321,-0.349333 0.684196,-0.349333 0.21084,0 0.365869,0.08682 0.155029,0.08682 0.254248,0.262517 0.144694,-0.1757 0.312126,-0.262517 0.167431,-0.08682 0.357601,-0.08682 0.241845,0 0.409277,0.09922 0.167432,0.09715 0.250114,0.287321 0.05994,0.140559 0.05994,0.454752 V 36 h -0.580843 v -1.254704 q 0,-0.326595 -0.05994,-0.421679 -0.08061,-0.124024 -0.248047,-0.124024 -0.121956,0 -0.229443,0.07441 -0.107487,0.07441 -0.15503,0.219108 -0.04754,0.142627 -0.04754,0.452686 V 36 h -0.580843 v -1.203027 q 0,-0.320394 -0.03101,-0.413412 -0.03101,-0.09302 -0.09715,-0.138493 -0.06408,-0.04548 -0.175699,-0.04548 -0.134359,0 -0.241846,0.07235 -0.107487,0.07235 -0.155029,0.208773 -0.04548,0.136426 -0.04548,0.452685 V 36 h -0.580843 z"
         style="font-size:4.23333311px;line-height:0px;text-align:center;text-anchor:middle;stroke-width:0.26458332"
         id="path876" />
      <path
         d="m 55.573208,35.301335 0.578776,0.09715 q -0.111621,0.318327 -0.353467,0.485759 -0.239779,0.165364 -0.601514,0.165364 -0.572575,0 -0.847493,-0.374137 -0.217041,-0.299723 -0.217041,-0.756543 0,-0.545703 0.285254,-0.853695 0.285254,-0.310058 0.721403,-0.310058 0.489892,0 0.773079,0.324528 0.283187,0.322461 0.270785,0.99012 h -1.455209 q 0.0062,0.258382 0.14056,0.403076 0.134359,0.142627 0.334863,0.142627 0.136426,0 0.229444,-0.07441 0.09302,-0.07441 0.14056,-0.239778 z m 0.03307,-0.587045 q -0.0062,-0.252181 -0.130225,-0.382405 -0.124023,-0.132292 -0.30179,-0.132292 -0.19017,0 -0.314193,0.138493 -0.124024,0.138493 -0.121956,0.376204 z"
         style="font-size:4.23333311px;line-height:0px;text-align:center;text-anchor:middle;stroke-width:0.26458332"
         id="path878" />
      <path
         d="m 57.66507,33.804785 v 0.463021 h -0.396875 v 0.884701 q 0,0.268717 0.01034,0.314192 0.0124,0.04341 0.05168,0.07235 0.04134,0.02894 0.09922,0.02894 0.08061,0 0.233578,-0.05581 l 0.04961,0.450618 q -0.202572,0.08682 -0.458887,0.08682 -0.157096,0 -0.283187,-0.05168 -0.12609,-0.05374 -0.186035,-0.136426 -0.05788,-0.08475 -0.08062,-0.227376 -0.0186,-0.101286 -0.0186,-0.409277 v -0.957048 h -0.266651 v -0.463021 h 0.266651 v -0.436149 l 0.58291,-0.338997 v 0.775146 z"
         style="font-size:4.23333311px;line-height:0px;text-align:center;text-anchor:middle;stroke-width:0.26458332"
         id="path880" />
      <path
         d="m 59.343521,35.301335 0.578776,0.09715 q -0.111621,0.318327 -0.353467,0.485759 -0.239778,0.165364 -0.601513,0.165364 -0.572575,0 -0.847494,-0.374137 -0.217041,-0.299723 -0.217041,-0.756543 0,-0.545703 0.285254,-0.853695 0.285254,-0.310058 0.721403,-0.310058 0.489892,0 0.773079,0.324528 0.283187,0.322461 0.270785,0.99012 h -1.455208 q 0.0062,0.258382 0.140559,0.403076 0.134359,0.142627 0.334864,0.142627 0.136425,0 0.229443,-0.07441 0.09302,-0.07441 0.14056,-0.239778 z m 0.03307,-0.587045 q -0.0062,-0.252181 -0.130225,-0.382405 -0.124023,-0.132292 -0.30179,-0.132292 -0.190169,0 -0.314193,0.138493 -0.124023,0.138493 -0.121956,0.376204 z"
         style="font-size:4.23333311px;line-height:0px;text-align:center;text-anchor:middle;stroke-width:0.26458332"
         id="path882" />
      <path
         d="m 60.984764,36 h -0.580843 v -2.195215 h 0.539502 v 0.312126 q 0.138493,-0.221175 0.248047,-0.291455 0.111621,-0.07028 0.252181,-0.07028 0.198438,0 0.382406,0.109554 l -0.179834,0.506429 q -0.146761,-0.09508 -0.272852,-0.09508 -0.121956,0 -0.206706,0.06821 -0.08475,0.06615 -0.134358,0.241846 -0.04754,0.1757 -0.04754,0.735872 z"
         style="font-size:4.23333311px;line-height:0px;text-align:center;text-anchor:middle;stroke-width:0.26458332"
         id="path884" />
    </g>
    <g
       aria-label="Width &amp; spacing combo"
       style="font-style:normal;font-variant:normal;font-weight:bold;font-stretch:normal;font-size:12px;line-height:1.25;font-family:Arial;-inkscape-font-specification:'Arial Bold';text-align:center;letter-spacing:0px;word-spacing:0px;text-anchor:middle;fill:#000000;fill-opacity:1;stroke:none;stroke-width:0.25"
       id="textws2">
      <path
         d="m 216.64019,32 -0.72347,-3.030306 h 0.62632 l 0.45681,2.081527 0.55398,-2.081527 h 0.7276 l 0.53123,2.116667 0.46509,-2.116667 h 0.61598 L 219.15786,32 h -0.64905 L 217.90523,29.734505 217.30371,32 Z"
         style="font-size:4.23333311px;line-height:0px;text-align:center;text-anchor:middle;stroke-width:0.26458332"
         id="path995" />
      <path
         d="m 220.16659,29.507129 v -0.537435 h 0.58084 v 0.537435 z m 0,2.492871 v -2.195215 h 0.58084 V 32 Z"
         style="font-size:4.23333311px;line-height:0px;text-align:center;text-anchor:middle;stroke-width:0.26458332"
         id="path997" />
      <path
         d="m 223.35399,32 h -0.5395 v -0.322461 q -0.13436,0.188102 -0.31833,0.28112 -0.1819,0.09095 -0.36794,0.09095 -0.37827,0 -0.64905,-0.303857 -0.26872,-0.305924 -0.26872,-0.851628 0,-0.558105 0.26252,-0.847493 0.26251,-0.291455 0.66352,-0.291455 0.36794,0 0.63666,0.305924 v -1.091406 h 0.58084 z m -1.55029,-1.14515 q 0,0.3514 0.0971,0.508496 0.14056,0.227377 0.39274,0.227377 0.2005,0 0.34106,-0.169499 0.14056,-0.171566 0.14056,-0.510563 0,-0.378272 -0.13642,-0.543636 -0.13643,-0.167432 -0.34934,-0.167432 -0.2067,0 -0.34726,0.165365 -0.13849,0.163297 -0.13849,0.489892 z"
         style="font-size:4.23333311px;line-height:0px;text-align:center;text-anchor:middle;stroke-width:0.26458332"
         id="path999" />
      <path
         d="m 224.93529,29.804785 v 0.463021 h -0.39688 v 0.884701 q 0,0.268717 0.0103,0.314192 0.0124,0.04341 0.0517,0.07235 0.0413,0.02894 0.0992,0.02894 0.0806,0 0.23358,-0.05581 l 0.0496,0.450618 q -0.20257,0.08682 -0.45889,0.08682 -0.15709,0 -0.28318,-0.05168 -0.12609,-0.05374 -0.18604,-0.136426 -0.0579,-0.08475 -0.0806,-0.227376 -0.0186,-0.101286 -0.0186,-0.409277 v -0.957048 h -0.26665 v -0.463021 h 0.26665 v -0.436149 l 0.58291,-0.338997 v 0.775146 z"
         style="font-size:4.23333311px;line-height:0px;text-align:center;text-anchor:middle;stroke-width:0.26458332"
         id="path1001" />
      <path
         d="m 225.92127,28.969694 v 1.114144 q 0.28112,-0.328662 0.6718,-0.328662 0.2005,0 0.36173,0.07441 0.16123,0.07441 0.24185,0.190169 0.0827,0.115755 0.11162,0.256315 0.031,0.14056 0.031,0.436149 V 32 h -0.58084 v -1.159619 q 0,-0.345199 -0.0331,-0.438216 -0.0331,-0.09302 -0.11782,-0.146761 -0.0827,-0.05581 -0.20878,-0.05581 -0.14469,0 -0.25838,0.07028 -0.11369,0.07028 -0.16743,0.212907 -0.0517,0.14056 -0.0517,0.417546 V 32 h -0.58084 v -3.030306 z"
         style="font-size:4.23333311px;line-height:0px;text-align:center;text-anchor:middle;stroke-width:0.26458332"
         id="path1003" />
      <path
         d="m 231.78965,31.629997 -0.3514,0.448551 q -0.25838,-0.12609 -0.49609,-0.347265 -0.18397,0.165364 -0.39068,0.243912 -0.2067,0.07855 -0.49196,0.07855 -0.56637,0 -0.85163,-0.318326 -0.22117,-0.24598 -0.22117,-0.566374 0,-0.291455 0.17363,-0.522965 0.17363,-0.233578 0.51883,-0.405144 -0.15503,-0.183968 -0.23357,-0.349332 -0.0785,-0.167432 -0.0785,-0.31626 0,-0.274919 0.21911,-0.465088 0.22117,-0.192236 0.62838,-0.192236 0.39274,0 0.61392,0.200504 0.22117,0.200505 0.22117,0.489893 0,0.183968 -0.10955,0.349333 -0.10956,0.165364 -0.44235,0.374137 l 0.42168,0.556038 q 0.0744,-0.132291 0.12816,-0.345198 l 0.52503,0.119889 q -0.0786,0.279053 -0.13643,0.409277 -0.0579,0.128158 -0.12402,0.214974 0.0971,0.09095 0.25011,0.200505 0.15503,0.107487 0.22738,0.142627 z m -1.5813,-1.647445 0.1571,-0.119889 q 0.17363,-0.134359 0.17363,-0.266651 0,-0.111621 -0.0848,-0.190169 -0.0827,-0.07855 -0.22531,-0.07855 -0.13849,0 -0.21704,0.07028 -0.0786,0.06821 -0.0786,0.159163 0,0.107487 0.13229,0.26045 z m -0.22738,0.630453 q -0.2005,0.101285 -0.29972,0.243912 -0.0992,0.142627 -0.0992,0.291455 0,0.188103 0.12196,0.307992 0.12402,0.117822 0.33073,0.117822 0.13642,0 0.26251,-0.05374 0.12609,-0.05374 0.27492,-0.177767 z"
         style="font-size:4.23333311px;line-height:0px;text-align:center;text-anchor:middle;stroke-width:0.26458332"
         id="path1005" />
      <path
         d="m 233.13324,31.373682 0.58291,-0.08888 q 0.0372,0.169499 0.15089,0.258382 0.11369,0.08682 0.31833,0.08682 0.22531,0 0.33899,-0.08268 0.0765,-0.05788 0.0765,-0.155029 0,-0.06615 -0.0413,-0.109554 -0.0434,-0.04134 -0.1943,-0.07648 -0.7028,-0.155029 -0.8909,-0.283187 -0.26045,-0.177767 -0.26045,-0.494026 0,-0.285254 0.22531,-0.479558 0.22531,-0.194303 0.69867,-0.194303 0.45061,0 0.66972,0.146761 0.21911,0.146761 0.30179,0.434082 l -0.54777,0.101286 q -0.0351,-0.128158 -0.13436,-0.196371 -0.0971,-0.06821 -0.27905,-0.06821 -0.22944,0 -0.32866,0.06408 -0.0661,0.04547 -0.0661,0.117822 0,0.06201 0.0579,0.10542 0.0786,0.05788 0.54157,0.163298 0.46509,0.10542 0.64905,0.258382 0.18191,0.155029 0.18191,0.432015 0,0.30179 -0.25218,0.518831 -0.25219,0.217041 -0.74621,0.217041 -0.44855,0 -0.71107,-0.181901 -0.26045,-0.181901 -0.34106,-0.494026 z"
         style="font-size:4.23333311px;line-height:0px;text-align:center;text-anchor:middle;stroke-width:0.26458332"
         id="path1007" />
      <path
         d="m 235.67778,29.804785 h 0.54157 v 0.322461 q 0.10542,-0.165364 0.28526,-0.268717 0.17983,-0.103353 0.39894,-0.103353 0.3824,0 0.64905,0.299723 0.26665,0.299723 0.26665,0.835091 0,0.549838 -0.26871,0.855762 -0.26872,0.303857 -0.65113,0.303857 -0.1819,0 -0.33073,-0.07235 -0.14676,-0.07235 -0.31005,-0.248046 v 1.105875 h -0.58085 z m 0.57464,1.060401 q 0,0.370003 0.14677,0.54777 0.14676,0.1757 0.3576,0.1757 0.20257,0 0.33693,-0.161231 0.13436,-0.163297 0.13436,-0.533301 0,-0.345198 -0.1385,-0.51263 -0.13849,-0.167431 -0.34313,-0.167431 -0.21291,0 -0.35347,0.165364 -0.14056,0.163298 -0.14056,0.485759 z"
         style="font-size:4.23333311px;line-height:0px;text-align:center;text-anchor:middle;stroke-width:0.26458332"
         id="path1009" />
      <path
         d="m 238.71636,30.474512 -0.5271,-0.09509 q 0.0889,-0.318327 0.30592,-0.471289 0.21704,-0.152962 0.64492,-0.152962 0.38861,0 0.57878,0.09302 0.19017,0.09095 0.26665,0.233578 0.0785,0.14056 0.0785,0.518831 l -0.006,0.677995 q 0,0.289388 0.0269,0.427881 0.0289,0.136426 0.10542,0.293522 h -0.57464 q -0.0227,-0.05788 -0.0558,-0.171566 -0.0145,-0.05168 -0.0207,-0.06821 -0.14883,0.144694 -0.31833,0.217041 -0.1695,0.07235 -0.36174,0.07235 -0.33899,0 -0.53536,-0.183968 -0.19431,-0.183968 -0.19431,-0.465088 0,-0.186035 0.0889,-0.330729 0.0889,-0.146761 0.24804,-0.223242 0.16123,-0.07855 0.46302,-0.136426 0.40721,-0.07648 0.56431,-0.142627 v -0.05788 q 0,-0.167432 -0.0827,-0.237712 -0.0827,-0.07235 -0.31213,-0.07235 -0.15503,0 -0.24184,0.06201 -0.0868,0.05994 -0.14056,0.212907 z m 0.77721,0.471289 q -0.11162,0.03721 -0.35347,0.08888 -0.24184,0.05168 -0.31626,0.101286 -0.11368,0.08061 -0.11368,0.204639 0,0.121956 0.0909,0.21084 0.0909,0.08888 0.23151,0.08888 0.15709,0 0.29972,-0.103353 0.10542,-0.07855 0.13849,-0.192236 0.0227,-0.07441 0.0227,-0.283187 z"
         style="font-size:4.23333311px;line-height:0px;text-align:center;text-anchor:middle;stroke-width:0.26458332"
         id="path1011" />
      <path
         d="m 242.55281,30.453841 -0.57257,0.103353 q -0.0289,-0.171566 -0.13229,-0.258382 -0.10129,-0.08682 -0.26458,-0.08682 -0.21705,0 -0.34727,0.150895 -0.12816,0.148828 -0.12816,0.500228 0,0.390673 0.13023,0.551904 0.13229,0.16123 0.35346,0.16123 0.16537,0 0.27079,-0.09302 0.10542,-0.09509 0.14883,-0.324528 l 0.5705,0.09715 q -0.0889,0.392741 -0.34106,0.593246 -0.25218,0.200504 -0.67593,0.200504 -0.48162,0 -0.76894,-0.303857 -0.28526,-0.303857 -0.28526,-0.841292 0,-0.543636 0.28732,-0.845427 0.28732,-0.303857 0.77722,-0.303857 0.40101,0 0.63665,0.173633 0.23771,0.171565 0.34106,0.525032 z"
         style="font-size:4.23333311px;line-height:0px;text-align:center;text-anchor:middle;stroke-width:0.26458332"
         id="path1013" />
      <path
         d="m 242.99517,29.507129 v -0.537435 h 0.58084 v 0.537435 z m 0,2.492871 v -2.195215 h 0.58084 V 32 Z"
         style="font-size:4.23333311px;line-height:0px;text-align:center;text-anchor:middle;stroke-width:0.26458332"
         id="path1015" />
      <path
         d="m 246.16603,32 h -0.58084 v -1.120345 q 0,-0.355534 -0.0372,-0.458887 -0.0372,-0.10542 -0.12196,-0.163297 -0.0827,-0.05788 -0.2005,-0.05788 -0.1509,0 -0.27079,0.08268 -0.11988,0.08268 -0.16536,0.219109 -0.0434,0.136425 -0.0434,0.504361 V 32 h -0.58084 v -2.195215 h 0.5395 v 0.322461 q 0.28732,-0.37207 0.72347,-0.37207 0.19224,0 0.3514,0.07028 0.15916,0.06821 0.23978,0.1757 0.0827,0.107487 0.11369,0.243912 0.0331,0.136426 0.0331,0.390674 z"
         style="font-size:4.23333311px;line-height:0px;text-align:center;text-anchor:middle;stroke-width:0.26458332"
         id="path1017" />
      <path
         d="m 246.70346,32.144694 0.66353,0.08062 q 0.0165,0.115755 0.0765,0.159164 0.0827,0.06201 0.26045,0.06201 0.22738,0 0.34106,-0.06821 0.0765,-0.04547 0.11576,-0.146761 0.0269,-0.07235 0.0269,-0.26665 V 31.644466 Q 247.92716,32 247.53029,32 q -0.44235,0 -0.70073,-0.374137 -0.20258,-0.29559 -0.20258,-0.735873 0,-0.551904 0.26459,-0.843359 0.26665,-0.291455 0.66146,-0.291455 0.40721,0 0.67179,0.357601 v -0.307992 h 0.54363 v 1.969906 q 0,0.388607 -0.0641,0.580843 -0.0641,0.192236 -0.17984,0.30179 -0.11575,0.109554 -0.31006,0.171566 -0.19223,0.06201 -0.48782,0.06201 -0.55811,0 -0.79168,-0.192237 -0.23358,-0.190169 -0.23358,-0.483691 0,-0.02894 0.002,-0.07028 z m 0.51884,-1.287777 q 0,0.349333 0.13435,0.512631 0.13643,0.16123 0.33487,0.16123 0.21291,0 0.35967,-0.165365 0.14676,-0.167431 0.14676,-0.494026 0,-0.341065 -0.14056,-0.506429 -0.14056,-0.165365 -0.35554,-0.165365 -0.20877,0 -0.3452,0.163298 -0.13435,0.16123 -0.13435,0.494026 z"
         style="font-size:4.23333311px;line-height:0px;text-align:center;text-anchor:middle;stroke-width:0.26458332"
         id="path1019" />
      <path
         d="m 252.43335,30.453841 -0.57258,0.103353 q -0.0289,-0.171566 -0.13229,-0.258382 -0.10128,-0.08682 -0.26458,-0.08682 -0.21704,0 -0.34727,0.150895 -0.12815,0.148828 -0.12815,0.500228 0,0.390673 0.13022,0.551904 0.13229,0.16123 0.35347,0.16123 0.16536,0 0.27078,-0.09302 0.10542,-0.09509 0.14883,-0.324528 l 0.57051,0.09715 q -0.0889,0.392741 -0.34107,0.593246 -0.25218,0.200504 -0.67593,0.200504 -0.48162,0 -0.76894,-0.303857 -0.28525,-0.303857 -0.28525,-0.841292 0,-0.543636 0.28732,-0.845427 0.28732,-0.303857 0.77721,-0.303857 0.40101,0 0.63665,0.173633 0.23772,0.171565 0.34107,0.525032 z"
         style="font-size:4.23333311px;line-height:0px;text-align:center;text-anchor:middle;stroke-width:0.26458332"
         id="path1021" />
      <path
         d="m 252.74134,30.871387 q 0,-0.289388 0.14263,-0.560173 0.14262,-0.270784 0.40307,-0.413411 0.26252,-0.142627 0.58498,-0.142627 0.49816,0 0.81649,0.324528 0.31832,0.322461 0.31832,0.816487 0,0.498161 -0.32246,0.826823 -0.32039,0.326595 -0.80822,0.326595 -0.30179,0 -0.5767,-0.136425 -0.27286,-0.136426 -0.41548,-0.398942 -0.14263,-0.264584 -0.14263,-0.642855 z m 0.59531,0.03101 q 0,0.326595 0.15503,0.500227 0.15503,0.173633 0.38241,0.173633 0.22737,0 0.38034,-0.173633 0.15503,-0.173632 0.15503,-0.504361 0,-0.322461 -0.15503,-0.496094 -0.15297,-0.173633 -0.38034,-0.173633 -0.22738,0 -0.38241,0.173633 -0.15503,0.173633 -0.15503,0.500228 z"
         style="font-size:4.23333311px;line-height:0px;text-align:center;text-anchor:middle;stroke-width:0.26458332"
         id="path1023" />
      <path
         d="m 255.42025,29.804785 h 0.53536 v 0.299724 q 0.28732,-0.349333 0.6842,-0.349333 0.21084,0 0.36587,0.08682 0.15503,0.08682 0.25425,0.262517 0.14469,-0.1757 0.31212,-0.262517 0.16743,-0.08682 0.3576,-0.08682 0.24185,0 0.40928,0.09922 0.16743,0.09715 0.25011,0.287321 0.06,0.140559 0.06,0.454752 V 32 h -0.58084 v -1.254704 q 0,-0.326595 -0.06,-0.421679 -0.0806,-0.124024 -0.24805,-0.124024 -0.12195,0 -0.22944,0.07441 -0.10749,0.07441 -0.15503,0.219108 -0.0475,0.142627 -0.0475,0.452686 V 32 h -0.58084 v -1.203027 q 0,-0.320394 -0.031,-0.413412 -0.031,-0.09302 -0.0971,-0.138493 -0.0641,-0.04547 -0.1757,-0.04547 -0.13436,0 -0.24185,0.07235 -0.10748,0.07235 -0.15503,0.208773 -0.0455,0.136426 -0.0455,0.452685 V 32 h -0.58084 z"
         style="font-size:4.23333311px;line-height:0px;text-align:center;text-anchor:middle;stroke-width:0.26458332"
         id="path1025" />
      <path
         d="m 259.20089,32 v -3.030306 h 0.58085 V 30.0611 q 0.26871,-0.305924 0.63665,-0.305924 0.40101,0 0.66352,0.291455 0.26252,0.289388 0.26252,0.833024 0,0.56224 -0.26872,0.866097 -0.26665,0.303857 -0.64905,0.303857 -0.1881,0 -0.37207,-0.09302 -0.1819,-0.09509 -0.3142,-0.279053 V 32 Z m 0.57671,-1.14515 q 0,0.341065 0.10749,0.504362 0.15089,0.231511 0.40101,0.231511 0.19223,0 0.32659,-0.163298 0.13643,-0.165364 0.13643,-0.518831 0,-0.376205 -0.13643,-0.541569 -0.13642,-0.167432 -0.34933,-0.167432 -0.20877,0 -0.34727,0.163298 -0.13849,0.16123 -0.13849,0.491959 z"
         style="font-size:4.23333311px;line-height:0px;text-align:center;text-anchor:middle;stroke-width:0.26458332"
         id="path1027" />
      <path
         d="m 261.67929,30.871387 q 0,-0.289388 0.14263,-0.560173 0.14263,-0.270784 0.40308,-0.413411 0.26251,-0.142627 0.58497,-0.142627 0.49816,0 0.81649,0.324528 0.31833,0.322461 0.31833,0.816487 0,0.498161 -0.32246,0.826823 -0.3204,0.326595 -0.80822,0.326595 -0.30179,0 -0.57671,-0.136425 -0.27285,-0.136426 -0.41548,-0.398942 -0.14263,-0.264584 -0.14263,-0.642855 z m 0.59532,0.03101 q 0,0.326595 0.15503,0.500227 0.15502,0.173633 0.3824,0.173633 0.22738,0 0.38034,-0.173633 0.15503,-0.173632 0.15503,-0.504361 0,-0.322461 -0.15503,-0.496094 -0.15296,-0.173633 -0.38034,-0.173633 -0.22738,0 -0.3824,0.173633 -0.15503,0.173633 -0.15503,0.500228 z"
         style="font-size:4.23333311px;line-height:0px;text-align:center;text-anchor:middle;stroke-width:0.26458332"
         id="path1029" />
    </g>
    <g
       aria-label="for external perimeter"
       style="font-style:normal;font-variant:normal;font-weight:bold;font-stretch:normal;font-size:12px;line-height:1.25;font-family:Arial;-inkscape-font-specification:'Arial Bold';text-align:center;letter-spacing:0px;word-spacing:0px;text-anchor:middle;fill:#000000;fill-opacity:1;stroke:none;stroke-width:0.25"
       id="textcf2">
      <path
         d="m 218.27936,33.804785 h 0.32246 v -0.165364 q 0,-0.276986 0.0579,-0.413412 0.06,-0.136426 0.21704,-0.221175 0.15917,-0.08682 0.40101,-0.08682 0.24805,0 0.48576,0.07441 l -0.0786,0.405143 q -0.13849,-0.03307 -0.26665,-0.03307 -0.12609,0 -0.1819,0.05994 -0.0537,0.05788 -0.0537,0.225309 v 0.155029 h 0.43408 v 0.45682 h -0.43408 V 36 h -0.58085 v -1.738395 h -0.32246 z"
         style="font-size:4.23333311px;line-height:0px;text-align:center;text-anchor:middle;stroke-width:0.26458332"
         id="path954" />
      <path
         d="m 219.81312,34.871387 q 0,-0.289388 0.14263,-0.560173 0.14262,-0.270784 0.40307,-0.413411 0.26252,-0.142627 0.58498,-0.142627 0.49816,0 0.81649,0.324528 0.31832,0.322461 0.31832,0.816487 0,0.498161 -0.32246,0.826823 -0.32039,0.326595 -0.80822,0.326595 -0.30179,0 -0.57671,-0.136425 -0.27285,-0.136426 -0.41547,-0.398942 -0.14263,-0.264584 -0.14263,-0.642855 z m 0.59531,0.03101 q 0,0.326595 0.15503,0.500227 0.15503,0.173633 0.38241,0.173633 0.22737,0 0.38034,-0.173633 0.15502,-0.173632 0.15502,-0.504361 0,-0.322461 -0.15502,-0.496094 -0.15297,-0.173633 -0.38034,-0.173633 -0.22738,0 -0.38241,0.173633 -0.15503,0.173633 -0.15503,0.500228 z"
         style="font-size:4.23333311px;line-height:0px;text-align:center;text-anchor:middle;stroke-width:0.26458332"
         id="path956" />
      <path
         d="m 223.09147,36 h -0.58084 v -2.195215 h 0.5395 v 0.312126 q 0.13849,-0.221175 0.24805,-0.291455 0.11162,-0.07028 0.25218,-0.07028 0.19844,0 0.3824,0.109554 l -0.17983,0.506429 q -0.14676,-0.09508 -0.27285,-0.09508 -0.12196,0 -0.20671,0.06821 -0.0848,0.06615 -0.13436,0.241846 -0.0475,0.1757 -0.0475,0.735872 z"
         style="font-size:4.23333311px;line-height:0px;text-align:center;text-anchor:middle;stroke-width:0.26458332"
         id="path958" />
      <path
         d="m 226.62614,35.301335 0.57878,0.09715 q -0.11163,0.318327 -0.35347,0.485759 -0.23978,0.165364 -0.60151,0.165364 -0.57258,0 -0.8475,-0.374137 -0.21704,-0.299723 -0.21704,-0.756543 0,-0.545703 0.28525,-0.853695 0.28526,-0.310058 0.72141,-0.310058 0.48989,0 0.77308,0.324528 0.28318,0.322461 0.27078,0.99012 h -1.45521 q 0.006,0.258382 0.14056,0.403076 0.13436,0.142627 0.33487,0.142627 0.13642,0 0.22944,-0.07441 0.093,-0.07441 0.14056,-0.239778 z m 0.0331,-0.587045 q -0.006,-0.252181 -0.13022,-0.382405 -0.12403,-0.132292 -0.30179,-0.132292 -0.19017,0 -0.31419,0.138493 -0.12403,0.138493 -0.12196,0.376204 z"
         style="font-size:4.23333311px;line-height:0px;text-align:center;text-anchor:middle;stroke-width:0.26458332"
         id="path960" />
      <path
         d="m 227.43229,36 0.79168,-1.13068 -0.75861,-1.064535 h 0.70901 l 0.3886,0.603581 0.40928,-0.603581 h 0.68213 l -0.74414,1.03973 L 229.72259,36 h -0.71313 L 228.56297,35.319938 228.11235,36 Z"
         style="font-size:4.23333311px;line-height:0px;text-align:center;text-anchor:middle;stroke-width:0.26458332"
         id="path962" />
      <path
         d="m 231.07445,33.804785 v 0.463021 h -0.39688 v 0.884701 q 0,0.268717 0.0103,0.314192 0.0124,0.04341 0.0517,0.07235 0.0413,0.02894 0.0992,0.02894 0.0806,0 0.23358,-0.05581 l 0.0496,0.450618 q -0.20257,0.08682 -0.45889,0.08682 -0.15709,0 -0.28318,-0.05168 -0.12609,-0.05374 -0.18604,-0.136426 -0.0579,-0.08475 -0.0806,-0.227376 -0.0186,-0.101286 -0.0186,-0.409277 v -0.957048 h -0.26665 v -0.463021 h 0.26665 v -0.436149 l 0.58291,-0.338997 v 0.775146 z"
         style="font-size:4.23333311px;line-height:0px;text-align:center;text-anchor:middle;stroke-width:0.26458332"
         id="path964" />
      <path
         d="m 232.7529,35.301335 0.57877,0.09715 q -0.11162,0.318327 -0.35346,0.485759 -0.23978,0.165364 -0.60152,0.165364 -0.57257,0 -0.84749,-0.374137 -0.21704,-0.299723 -0.21704,-0.756543 0,-0.545703 0.28525,-0.853695 0.28526,-0.310058 0.72141,-0.310058 0.48989,0 0.77307,0.324528 0.28319,0.322461 0.27079,0.99012 h -1.45521 q 0.006,0.258382 0.14056,0.403076 0.13436,0.142627 0.33486,0.142627 0.13643,0 0.22945,-0.07441 0.093,-0.07441 0.14056,-0.239778 z m 0.0331,-0.587045 q -0.006,-0.252181 -0.13022,-0.382405 -0.12403,-0.132292 -0.30179,-0.132292 -0.19017,0 -0.3142,0.138493 -0.12402,0.138493 -0.12195,0.376204 z"
         style="font-size:4.23333311px;line-height:0px;text-align:center;text-anchor:middle;stroke-width:0.26458332"
         id="path966" />
      <path
         d="m 234.39414,36 h -0.58084 v -2.195215 h 0.5395 v 0.312126 q 0.13849,-0.221175 0.24805,-0.291455 0.11162,-0.07028 0.25218,-0.07028 0.19843,0 0.3824,0.109554 l -0.17983,0.506429 q -0.14676,-0.09508 -0.27285,-0.09508 -0.12196,0 -0.20671,0.06821 -0.0848,0.06615 -0.13436,0.241846 -0.0475,0.1757 -0.0475,0.735872 z"
         style="font-size:4.23333311px;line-height:0px;text-align:center;text-anchor:middle;stroke-width:0.26458332"
         id="path968" />
      <path
         d="m 237.48026,36 h -0.58085 v -1.120345 q 0,-0.355534 -0.0372,-0.458887 -0.0372,-0.10542 -0.12196,-0.163297 -0.0827,-0.05788 -0.2005,-0.05788 -0.1509,0 -0.27079,0.08268 -0.11989,0.08268 -0.16536,0.219109 -0.0434,0.136425 -0.0434,0.504361 V 36 h -0.58084 v -2.195215 h 0.5395 v 0.322461 q 0.28732,-0.37207 0.72347,-0.37207 0.19223,0 0.3514,0.07028 0.15916,0.06821 0.23978,0.1757 0.0827,0.107487 0.11368,0.243912 0.0331,0.136426 0.0331,0.390674 z"
         style="font-size:4.23333311px;line-height:0px;text-align:center;text-anchor:middle;stroke-width:0.26458332"
         id="path970" />
      <path
         d="m 238.50552,34.474512 -0.5271,-0.09508 q 0.0889,-0.318327 0.30592,-0.471289 0.21704,-0.152962 0.64492,-0.152962 0.38861,0 0.57878,0.09302 0.19017,0.09095 0.26665,0.233578 0.0786,0.14056 0.0786,0.518831 l -0.006,0.677995 q 0,0.289388 0.0269,0.427881 0.0289,0.136426 0.10542,0.293522 h -0.57464 q -0.0227,-0.05788 -0.0558,-0.171566 -0.0145,-0.05168 -0.0207,-0.06821 -0.14883,0.144694 -0.31833,0.217041 -0.1695,0.07235 -0.36174,0.07235 -0.33899,0 -0.53536,-0.183968 -0.19431,-0.183968 -0.19431,-0.465088 0,-0.186035 0.0889,-0.330729 0.0889,-0.146761 0.24804,-0.223242 0.16123,-0.07855 0.46302,-0.136426 0.40721,-0.07648 0.56431,-0.142627 v -0.05788 q 0,-0.167432 -0.0827,-0.237712 -0.0827,-0.07235 -0.31213,-0.07235 -0.15503,0 -0.24184,0.06201 -0.0868,0.05994 -0.14056,0.212907 z m 0.77721,0.471289 q -0.11162,0.03721 -0.35347,0.08888 -0.24184,0.05168 -0.31626,0.101286 -0.11368,0.08062 -0.11368,0.204639 0,0.121956 0.0909,0.21084 0.0909,0.08888 0.23151,0.08888 0.15709,0 0.29972,-0.103353 0.10542,-0.07855 0.13849,-0.192236 0.0227,-0.07441 0.0227,-0.283187 z"
         style="font-size:4.23333311px;line-height:0px;text-align:center;text-anchor:middle;stroke-width:0.26458332"
         id="path972" />
      <path
         d="m 240.42788,36 v -3.030306 h 0.58084 V 36 Z"
         style="font-size:4.23333311px;line-height:0px;text-align:center;text-anchor:middle;stroke-width:0.26458332"
         id="path974" />
      <path
         d="m 242.75952,33.804785 h 0.54157 v 0.322461 q 0.10542,-0.165364 0.28525,-0.268717 0.17984,-0.103353 0.39895,-0.103353 0.3824,0 0.64905,0.299723 0.26665,0.299723 0.26665,0.835091 0,0.549838 -0.26871,0.855762 -0.26872,0.303857 -0.65113,0.303857 -0.1819,0 -0.33073,-0.07235 -0.14676,-0.07235 -0.31006,-0.248046 v 1.105875 h -0.58084 z m 0.57464,1.060401 q 0,0.370003 0.14676,0.54777 0.14677,0.1757 0.35761,0.1757 0.20257,0 0.33693,-0.161231 0.13435,-0.163297 0.13435,-0.533301 0,-0.345198 -0.13849,-0.51263 -0.13849,-0.167431 -0.34313,-0.167431 -0.21291,0 -0.35347,0.165364 -0.14056,0.163298 -0.14056,0.485759 z"
         style="font-size:4.23333311px;line-height:0px;text-align:center;text-anchor:middle;stroke-width:0.26458332"
         id="path976" />
      <path
         d="m 246.63525,35.301335 0.57878,0.09715 q -0.11162,0.318327 -0.35347,0.485759 -0.23978,0.165364 -0.60151,0.165364 -0.57258,0 -0.84749,-0.374137 -0.21705,-0.299723 -0.21705,-0.756543 0,-0.545703 0.28526,-0.853695 0.28525,-0.310058 0.7214,-0.310058 0.48989,0 0.77308,0.324528 0.28319,0.322461 0.27079,0.99012 h -1.45521 q 0.006,0.258382 0.14056,0.403076 0.13436,0.142627 0.33486,0.142627 0.13643,0 0.22944,-0.07441 0.093,-0.07441 0.14056,-0.239778 z m 0.0331,-0.587045 q -0.006,-0.252181 -0.13023,-0.382405 -0.12402,-0.132292 -0.30179,-0.132292 -0.19017,0 -0.31419,0.138493 -0.12402,0.138493 -0.12196,0.376204 z"
         style="font-size:4.23333311px;line-height:0px;text-align:center;text-anchor:middle;stroke-width:0.26458332"
         id="path978" />
      <path
         d="m 248.2765,36 h -0.58085 v -2.195215 h 0.5395 v 0.312126 q 0.1385,-0.221175 0.24805,-0.291455 0.11162,-0.07028 0.25218,-0.07028 0.19844,0 0.38241,0.109554 l -0.17984,0.506429 q -0.14676,-0.09508 -0.27285,-0.09508 -0.12195,0 -0.2067,0.06821 -0.0848,0.06615 -0.13436,0.241846 -0.0475,0.1757 -0.0475,0.735872 z"
         style="font-size:4.23333311px;line-height:0px;text-align:center;text-anchor:middle;stroke-width:0.26458332"
         id="path980" />
      <path
         d="m 249.36584,33.507129 v -0.537435 h 0.58084 v 0.537435 z m 0,2.492871 v -2.195215 h 0.58084 V 36 Z"
         style="font-size:4.23333311px;line-height:0px;text-align:center;text-anchor:middle;stroke-width:0.26458332"
         id="path982" />
      <path
         d="m 250.49652,33.804785 h 0.53536 v 0.299724 q 0.28733,-0.349333 0.6842,-0.349333 0.21084,0 0.36587,0.08682 0.15503,0.08682 0.25425,0.262517 0.14469,-0.1757 0.31212,-0.262517 0.16743,-0.08682 0.3576,-0.08682 0.24185,0 0.40928,0.09922 0.16743,0.09715 0.25011,0.287321 0.0599,0.140559 0.0599,0.454752 V 36 h -0.58084 v -1.254704 q 0,-0.326595 -0.0599,-0.421679 -0.0806,-0.124024 -0.24804,-0.124024 -0.12196,0 -0.22945,0.07441 -0.10749,0.07441 -0.15503,0.219108 -0.0475,0.142627 -0.0475,0.452686 V 36 h -0.58084 v -1.203027 q 0,-0.320394 -0.031,-0.413412 -0.031,-0.09302 -0.0971,-0.138493 -0.0641,-0.04548 -0.1757,-0.04548 -0.13436,0 -0.24185,0.07235 -0.10748,0.07235 -0.15503,0.208773 -0.0455,0.136426 -0.0455,0.452685 V 36 h -0.58084 z"
         style="font-size:4.23333311px;line-height:0px;text-align:center;text-anchor:middle;stroke-width:0.26458332"
         id="path984" />
      <path
         d="m 255.57321,35.301335 0.57877,0.09715 q -0.11162,0.318327 -0.35346,0.485759 -0.23978,0.165364 -0.60152,0.165364 -0.57257,0 -0.84749,-0.374137 -0.21704,-0.299723 -0.21704,-0.756543 0,-0.545703 0.28525,-0.853695 0.28526,-0.310058 0.72141,-0.310058 0.48989,0 0.77308,0.324528 0.28318,0.322461 0.27078,0.99012 h -1.45521 q 0.006,0.258382 0.14056,0.403076 0.13436,0.142627 0.33486,0.142627 0.13643,0 0.22945,-0.07441 0.093,-0.07441 0.14056,-0.239778 z m 0.0331,-0.587045 q -0.006,-0.252181 -0.13022,-0.382405 -0.12403,-0.132292 -0.30179,-0.132292 -0.19017,0 -0.3142,0.138493 -0.12402,0.138493 -0.12195,0.376204 z"
         style="font-size:4.23333311px;line-height:0px;text-align:center;text-anchor:middle;stroke-width:0.26458332"
         id="path986" />
      <path
         d="m 257.66507,33.804785 v 0.463021 h -0.39688 v 0.884701 q 0,0.268717 0.0103,0.314192 0.0124,0.04341 0.0517,0.07235 0.0413,0.02894 0.0992,0.02894 0.0806,0 0.23357,-0.05581 l 0.0496,0.450618 q -0.20257,0.08682 -0.45888,0.08682 -0.1571,0 -0.28319,-0.05168 -0.12609,-0.05374 -0.18604,-0.136426 -0.0579,-0.08475 -0.0806,-0.227376 -0.0186,-0.101286 -0.0186,-0.409277 v -0.957048 h -0.26665 v -0.463021 h 0.26665 v -0.436149 l 0.58291,-0.338997 v 0.775146 z"
         style="font-size:4.23333311px;line-height:0px;text-align:center;text-anchor:middle;stroke-width:0.26458332"
         id="path988" />
      <path
         d="m 259.34352,35.301335 0.57878,0.09715 q -0.11162,0.318327 -0.35347,0.485759 -0.23978,0.165364 -0.60151,0.165364 -0.57258,0 -0.8475,-0.374137 -0.21704,-0.299723 -0.21704,-0.756543 0,-0.545703 0.28526,-0.853695 0.28525,-0.310058 0.7214,-0.310058 0.48989,0 0.77308,0.324528 0.28319,0.322461 0.27078,0.99012 h -1.45521 q 0.006,0.258382 0.14056,0.403076 0.13436,0.142627 0.33487,0.142627 0.13642,0 0.22944,-0.07441 0.093,-0.07441 0.14056,-0.239778 z m 0.0331,-0.587045 q -0.006,-0.252181 -0.13022,-0.382405 -0.12402,-0.132292 -0.30179,-0.132292 -0.19017,0 -0.31419,0.138493 -0.12403,0.138493 -0.12196,0.376204 z"
         style="font-size:4.23333311px;line-height:0px;text-align:center;text-anchor:middle;stroke-width:0.26458332"
         id="path990" />
      <path
         d="m 260.98476,36 h -0.58084 v -2.195215 h 0.5395 v 0.312126 q 0.1385,-0.221175 0.24805,-0.291455 0.11162,-0.07028 0.25218,-0.07028 0.19844,0 0.38241,0.109554 l -0.17984,0.506429 q -0.14676,-0.09508 -0.27285,-0.09508 -0.12196,0 -0.2067,0.06821 -0.0847,0.06615 -0.13436,0.241846 -0.0476,0.1757 -0.0476,0.735872 z"
         style="font-size:4.23333311px;line-height:0px;text-align:center;text-anchor:middle;stroke-width:0.26458332"
         id="path992" />
    </g>
  </g>
</svg>
