<?xml version="1.0" encoding="utf-8"?>
<!-- Generator: Adobe Illustrator 23.0.6, SVG Export Plug-In . SVG Version: 6.00 Build 0)  -->
<svg version="1.0" id="Layer_1" xmlns="http://www.w3.org/2000/svg" xmlns:xlink="http://www.w3.org/1999/xlink" x="0px" y="0px"
	 viewBox="0 0 16 16" enable-background="new 0 0 16 16" xml:space="preserve">
<path id="background_white_1_" fill="#ffffff" d="M 1.337373,6.1250997 10.523316,6.0815623 7.9003335,2.4654392 C 7.2747405,1.5361462 7.7643506,0.69105937 8.4771954,0.27549438 9.1410379,-0.11150384 10.22409,0.04292985 10.822715,0.78475227 l 4.522254,6.09993063 c 0,0.019477 0.01088,0.019477 0.01088,0.038952 0.01089,0.019477 0.02176,0.05843 0.03266,0.077906 0.01089,0.038952 0.03266,0.097382 0.04354,0.1363348 0.01089,0.038952 0.02176,0.05843 0.03266,0.097382 0.01088,0.019477 0.01088,0.05843 0.02176,0.077906 0.01089,0.038952 0.02176,0.097382 0.02176,0.1363349 0.01089,0.038952 0.01089,0.077906 0.02176,0.1168593 0,0.019477 0,0.05843 0.01088,0.077906 0,0.038952 0.01089,0.097382 0.01089,0.136335 0,0.038952 0.01088,0.097382 0.01088,0.136335 v 0.038952 0.038952 c 0,0.038952 0,0.097382 -0.01088,0.1363349 0,0.038953 0,0.097382 -0.01089,0.1363351 0,0.019477 0,0.05843 -0.01088,0.077906 0,0.038952 -0.01089,0.077906 -0.02176,0.1168593 -0.01088,0.038952 -0.01088,0.097382 -0.02176,0.1363349 -0.01089,0.019477 -0.01089,0.05843 -0.02176,0.077906 -0.01089,0.038952 -0.02176,0.077906 -0.03266,0.097382 -0.01089,0.038952 -0.02176,0.077905 -0.04354,0.1363346 -0.01088,0.019482 -0.02176,0.058434 -0.03266,0.077905 0,0.019482 -0.01088,0.019482 -0.01088,0.038952 l -4.680073,6.3030093 c -0.473459,0.546777 -1.6420466,0.6907 -2.4054079,0.163238 C 7.4961268,14.965873 7.5883336,13.730833 7.8785692,13.341506 L 10.414473,9.7236666 1.337373,9.767204 C 0.76052572,9.8256383 0.30340136,8.9881443 0.30340136,7.9753665 c 0,-1.0127776 0.45712436,-1.8502668 1.03397164,-1.8502668 z" />
<path id="arraow_red_1_" fill="#ff0000" d="M1.95,7.01h10.24L8.86,2.51c-0.31-0.42-0.22-1.01,0.2-1.32c0.42-0.31,1.01-0.22,1.32,0.2  l4.44,6.01c0,0.01,0.01,0.01,0.01,0.02c0.01,0.01,0.02,0.03,0.03,0.04c0.01,0.02,0.03,0.05,0.04,0.07c0.01,0.02,0.02,0.03,0.03,0.05  c0.01,0.01,0.01,0.03,0.02,0.04c0.01,0.02,0.02,0.05,0.02,0.07c0.01,0.02,0.01,0.04,0.02,0.06c0,0.01,0,0.03,0.01,0.04  c0,0.02,0.01,0.05,0.01,0.07c0,0.02,0.01,0.05,0.01,0.07c0,0.01,0,0.01,0,0.02c0,0.01,0,0.01,0,0.02c0,0.02,0,0.05-0.01,0.07  c0,0.02,0,0.05-0.01,0.07c0,0.01,0,0.03-0.01,0.04c0,0.02-0.01,0.04-0.02,0.06c-0.01,0.02-0.01,0.05-0.02,0.07  c-0.01,0.01-0.01,0.03-0.02,0.04c-0.01,0.02-0.02,0.04-0.03,0.05c-0.01,0.02-0.02,0.04-0.04,0.07c-0.01,0.01-0.02,0.03-0.03,0.04  c0,0.01-0.01,0.01-0.01,0.02l-4.54,6.05c-0.19,0.25-0.47,0.38-0.76,0.38c-0.2,0-0.4-0.06-0.57-0.19c-0.42-0.31-0.5-0.91-0.19-1.32  l3.41-4.54H1.95C1.42,8.91,1,8.48,1,7.96C1,7.44,1.42,7.01,1.95,7.01z" />
</svg>
