solid OpenSCAD_Model
  facet normal -1 0 0
    outer loop
      vertex 0 0 0
      vertex 0 30 10
      vertex 0 30 0
    endloop
  endfacet
  facet normal -1 -0 0
    outer loop
      vertex 0 30 10
      vertex 0 0 0
      vertex 0 0 10
    endloop
  endfacet
  facet normal 0 0 1
    outer loop
      vertex 18 13 10
      vertex 30 30 10
      vertex 18 18 10
    endloop
  endfacet
  facet normal 0 0 1
    outer loop
      vertex 30 30 10
      vertex 13 18 10
      vertex 18 18 10
    endloop
  endfacet
  facet normal 0 0 1
    outer loop
      vertex 13 18 10
      vertex 0 30 10
      vertex 13 13 10
    endloop
  endfacet
  facet normal -0 0 1
    outer loop
      vertex 0 30 10
      vertex 13 18 10
      vertex 30 30 10
    endloop
  endfacet
  facet normal 0 0 1
    outer loop
      vertex 30 30 10
      vertex 18 13 10
      vertex 30 0 10
    endloop
  endfacet
  facet normal -0 0 1
    outer loop
      vertex 13 13 10
      vertex 30 0 10
      vertex 18 13 10
    endloop
  endfacet
  facet normal 0 0 1
    outer loop
      vertex 13 13 10
      vertex 0 0 10
      vertex 30 0 10
    endloop
  endfacet
  facet normal 0 0 1
    outer loop
      vertex 0 0 10
      vertex 13 13 10
      vertex 0 30 10
    endloop
  endfacet
  facet normal 1 -0 0
    outer loop
      vertex 30 0 10
      vertex 30 30 0
      vertex 30 30 10
    endloop
  endfacet
  facet normal 1 0 0
    outer loop
      vertex 30 30 0
      vertex 30 0 10
      vertex 30 0 0
    endloop
  endfacet
  facet normal 0 1 -0
    outer loop
      vertex 30 30 0
      vertex 0 30 10
      vertex 30 30 10
    endloop
  endfacet
  facet normal 0 1 0
    outer loop
      vertex 0 30 10
      vertex 30 30 0
      vertex 0 30 0
    endloop
  endfacet
  facet normal 0 0 -1
    outer loop
      vertex 0 0 0
      vertex 30 30 0
      vertex 30 0 0
    endloop
  endfacet
  facet normal -0 0 -1
    outer loop
      vertex 30 30 0
      vertex 0 0 0
      vertex 0 30 0
    endloop
  endfacet
  facet normal 0 -1 0
    outer loop
      vertex 0 0 0
      vertex 30 0 10
      vertex 0 0 10
    endloop
  endfacet
  facet normal 0 -1 -0
    outer loop
      vertex 30 0 10
      vertex 0 0 0
      vertex 30 0 0
    endloop
  endfacet
  facet normal 1 -0 0
    outer loop
      vertex 13 13 10
      vertex 13 18 5
      vertex 13 18 10
    endloop
  endfacet
  facet normal 1 0 0
    outer loop
      vertex 13 18 5
      vertex 13 13 10
      vertex 13 13 5
    endloop
  endfacet
  facet normal -1 0 0
    outer loop
      vertex 18 13 5
      vertex 18 18 10
      vertex 18 18 5
    endloop
  endfacet
  facet normal -1 -0 0
    outer loop
      vertex 18 18 10
      vertex 18 13 5
      vertex 18 13 10
    endloop
  endfacet
  facet normal -0 0 1
    outer loop
      vertex 13 18 5
      vertex 18 13 5
      vertex 18 18 5
    endloop
  endfacet
  facet normal 0 0 1
    outer loop
      vertex 18 13 5
      vertex 13 18 5
      vertex 13 13 5
    endloop
  endfacet
  facet normal 0 1 -0
    outer loop
      vertex 18 13 5
      vertex 13 13 10
      vertex 18 13 10
    endloop
  endfacet
  facet normal 0 1 0
    outer loop
      vertex 13 13 10
      vertex 18 13 5
      vertex 13 13 5
    endloop
  endfacet
  facet normal 0 -1 0
    outer loop
      vertex 13 18 5
      vertex 18 18 10
      vertex 13 18 10
    endloop
  endfacet
  facet normal 0 -1 -0
    outer loop
      vertex 18 18 10
      vertex 13 18 5
      vertex 18 18 5
    endloop
  endfacet
endsolid OpenSCAD_Model
